<svg width="98" height="101" viewBox="0 0 98 101" fill="none" xmlns="http://www.w3.org/2000/svg">
<g id="B_-_88_x2C__Airport_x2C__conveyance_x2C__shipping_x2C__transit_x2C__transport_x2C__transportation_1_">
<g id="Group">
<g id="Group_2">
<path id="Vector" d="M89.4067 100.194H8.04486C7.67919 100.194 7.31348 99.8283 7.31348 99.4626V56.3134C7.31348 55.9477 7.67919 55.582 8.04486 55.582H89.4067C89.7724 55.582 90.1381 55.9477 90.1381 56.3134V99.4626C90.1381 99.8283 89.7724 100.194 89.4067 100.194ZM8.77625 98.5484H88.4926V57.0447H8.77625V98.5484Z" fill="#C42128"/>
</g>
<g id="Group_3">
<path id="Vector_2" d="M96.5373 57.0444H0.731387C0.365716 57.0444 0 56.6787 0 56.313V48.4511C0 48.0854 0.365716 47.7197 0.731387 47.7197H96.5373C96.903 47.7197 97.2686 48.0854 97.2686 48.4511V56.313C97.2686 56.6787 96.903 57.0444 96.5373 57.0444ZM1.64557 55.3988H95.806V49.1824H1.64557V55.3988Z" fill="#C42128"/>
</g>
<g id="Group_4">
<path id="Vector_3" d="M31.9959 100.194H19.746C19.3804 100.194 19.0146 99.8285 19.0146 99.4628V80.6307C19.0146 80.2651 19.3804 79.8994 19.746 79.8994H31.9959C32.3616 79.8994 32.7273 80.2651 32.7273 80.6307V99.4628C32.7273 99.8285 32.3616 100.194 31.9959 100.194ZM20.6602 98.5486H31.2647V81.3621H20.6602V98.5486Z" fill="#C42128"/>
</g>
<g id="Group_5">
<path id="Vector_4" d="M77.5223 100.194H65.2723C64.9066 100.194 64.541 99.8285 64.541 99.4628V80.6307C64.541 80.2651 64.9066 79.8994 65.2723 79.8994H77.5223C77.888 79.8994 78.2537 80.2651 78.2537 80.6307V99.4628C78.2537 99.8285 77.888 100.194 77.5223 100.194ZM66.1865 98.5486H76.7909V81.3621H66.1865V98.5486Z" fill="#C42128"/>
</g>
<g id="Group_6">
<path id="Vector_5" d="M43.149 85.5673H31.9959C31.6303 85.5673 31.2646 85.2016 31.2646 84.836V80.6307C31.2646 80.2651 31.6303 79.8994 31.9959 79.8994H43.149C43.5146 79.8994 43.8802 80.2651 43.8802 80.6307V84.836C43.8802 85.2016 43.5146 85.5673 43.149 85.5673ZM32.7273 83.9218H42.2348V81.3621H32.7273V83.9218Z" fill="#C42128"/>
</g>
<g id="Group_7">
<path id="Vector_6" d="M54.3023 85.5673H43.1494C42.7837 85.5673 42.418 85.2016 42.418 84.836V80.6307C42.418 80.2651 42.7837 79.8994 43.1494 79.8994H54.3023C54.668 79.8994 55.0337 80.2651 55.0337 80.6307V84.836C55.0337 85.2016 54.668 85.5673 54.3023 85.5673ZM43.8806 83.9218H53.3881V81.3621H43.8806V83.9218Z" fill="#C42128"/>
</g>
<g id="Group_8">
<path id="Vector_7" d="M65.272 85.5673H54.1191C53.7534 85.5673 53.3877 85.2016 53.3877 84.836V80.6307C53.3877 80.2651 53.7534 79.8994 54.1191 79.8994H65.272C65.6377 79.8994 66.0034 80.2651 66.0034 80.6307V84.836C66.1862 85.2016 65.8205 85.5673 65.272 85.5673ZM55.0333 83.9218H64.5407V81.3621H55.0333V83.9218Z" fill="#C42128"/>
</g>
<g id="Group_9">
<path id="Vector_8" d="M43.149 89.7724H31.9959C31.6303 89.7724 31.2646 89.4067 31.2646 89.0411V84.8358C31.2646 84.4702 31.6303 84.1045 31.9959 84.1045H43.149C43.5146 84.1045 43.8802 84.4702 43.8802 84.8358V89.0411C43.8802 89.4067 43.5146 89.7724 43.149 89.7724ZM32.7273 88.1269H42.2348V85.5672H32.7273V88.1269Z" fill="#C42128"/>
</g>
<g id="Group_10">
<path id="Vector_9" d="M54.3023 89.7724H43.1494C42.7837 89.7724 42.418 89.4067 42.418 89.0411V84.8358C42.418 84.4702 42.7837 84.1045 43.1494 84.1045H54.3023C54.668 84.1045 55.0337 84.4702 55.0337 84.8358V89.0411C55.0337 89.4067 54.668 89.7724 54.3023 89.7724ZM43.8806 88.1269H53.3881V85.5672H43.8806V88.1269Z" fill="#C42128"/>
</g>
<g id="Group_11">
<path id="Vector_10" d="M65.272 89.7724H54.1191C53.7534 89.7724 53.3877 89.4067 53.3877 89.0411V84.8358C53.3877 84.4702 53.7534 84.1045 54.1191 84.1045H65.272C65.6377 84.1045 66.0034 84.4702 66.0034 84.8358V89.0411C66.1862 89.4067 65.8205 89.7724 65.272 89.7724ZM55.0333 88.1269H64.5407V85.5672H55.0333V88.1269Z" fill="#C42128"/>
</g>
<g id="Group_12">
<path id="Vector_11" d="M89.4067 85.5673H77.5224C77.1567 85.5673 76.791 85.2016 76.791 84.836V80.6307C76.791 80.2651 77.1567 79.8994 77.5224 79.8994H89.4067C89.7724 79.8994 90.1381 80.2651 90.1381 80.6307V84.836C90.1381 85.2016 89.7724 85.5673 89.4067 85.5673ZM78.2538 83.9218H88.4925V81.3621H78.2538V83.9218Z" fill="#C42128"/>
</g>
<g id="Group_13">
<path id="Vector_12" d="M89.4067 89.7724H77.5224C77.1567 89.7724 76.791 89.4067 76.791 89.0411V84.8358C76.791 84.4702 77.1567 84.1045 77.5224 84.1045H89.4067C89.7724 84.1045 90.1381 84.4702 90.1381 84.8358V89.0411C90.1381 89.4067 89.7724 89.7724 89.4067 89.7724ZM78.2538 88.1269H88.4925V85.5672H78.2538V88.1269Z" fill="#C42128"/>
</g>
<g id="Group_14">
<path id="Vector_13" d="M19.7464 85.5673H8.04486C7.67919 85.5673 7.31348 85.2016 7.31348 84.836V80.6307C7.31348 80.2651 7.67919 79.8994 8.04486 79.8994H19.9292C20.2949 79.8994 20.6606 80.2651 20.6606 80.6307V84.836C20.6606 85.2016 20.2949 85.5673 19.7464 85.5673ZM8.77625 83.9218H19.015V81.3621H8.77625V83.9218Z" fill="#C42128"/>
</g>
<g id="Group_15">
<path id="Vector_14" d="M19.7464 89.7724H8.04486C7.67919 89.7724 7.31348 89.4067 7.31348 89.0411V84.8358C7.31348 84.4702 7.67919 84.1045 8.04486 84.1045H19.9292C20.2949 84.1045 20.6606 84.4702 20.6606 84.8358V89.0411C20.6606 89.4067 20.2949 89.7724 19.7464 89.7724ZM8.77625 88.1269H19.015V85.5672H8.77625V88.1269Z" fill="#C42128"/>
</g>
<g id="Group_16">
<path id="Vector_15" d="M87.0299 75.5112H10.4217C10.056 75.5112 9.69043 75.1455 9.69043 74.7799V58.6903C9.69043 58.3246 10.056 57.959 10.4217 57.959H87.0299C87.3956 57.959 87.7612 58.3246 87.7612 58.6903V74.7799C87.7612 75.1455 87.3956 75.5112 87.0299 75.5112ZM11.1531 73.8657H86.1157V59.4217H11.1531V73.8657Z" fill="#C42128"/>
</g>
<g id="Group_17">
<path id="Vector_16" d="M26.8767 73.3175H12.2498C11.8842 73.3175 11.5186 72.9518 11.5186 72.5862V60.8847C11.5186 60.519 11.8842 60.1533 12.2498 60.1533H26.8767C27.2424 60.1533 27.6081 60.519 27.6081 60.8847V72.5862C27.6081 72.9518 27.2424 73.3175 26.8767 73.3175ZM13.164 71.8548H26.1454V61.7988H13.164V71.8548Z" fill="#C42128"/>
</g>
<g id="Group_18">
<path id="Vector_17" d="M41.5036 73.3175H26.8768C26.5111 73.3175 26.1455 72.9518 26.1455 72.5862V60.8847C26.1455 60.519 26.5111 60.1533 26.8768 60.1533H41.5036C41.8693 60.1533 42.235 60.519 42.235 60.8847V72.5862C42.235 72.9518 41.8693 73.3175 41.5036 73.3175ZM27.6082 71.8548H40.5895V61.7988H27.6082V71.8548Z" fill="#C42128"/>
</g>
<g id="Group_19">
<path id="Vector_18" d="M55.9481 73.3175H41.3212C40.9556 73.3175 40.5898 72.9518 40.5898 72.5862V60.8847C40.5898 60.519 40.9556 60.1533 41.3212 60.1533H55.9481C56.3138 60.1533 56.6794 60.519 56.6794 60.8847V72.5862C56.8622 72.9518 56.4966 73.3175 55.9481 73.3175ZM42.2354 71.8548H55.2167V61.7988H42.2354V71.8548Z" fill="#C42128"/>
</g>
<g id="Group_20">
<path id="Vector_19" d="M70.575 73.3175H55.9482C55.5825 73.3175 55.2168 72.9518 55.2168 72.5862V60.8847C55.2168 60.519 55.5825 60.1533 55.9482 60.1533H70.575C70.9407 60.1533 71.3063 60.519 71.3063 60.8847V72.5862C71.3063 72.9518 70.9407 73.3175 70.575 73.3175ZM56.8624 71.8548H69.8437V61.7988H56.8624V71.8548Z" fill="#C42128"/>
</g>
<g id="Group_21">
<path id="Vector_20" d="M85.0183 73.3175H70.3914C70.0258 73.3175 69.6602 72.9518 69.6602 72.5862V60.8847C69.6602 60.519 70.0258 60.1533 70.3914 60.1533H85.0183C85.384 60.1533 85.7497 60.519 85.7497 60.8847V72.5862C85.9325 72.9518 85.384 73.3175 85.0183 73.3175ZM71.3056 71.8548H84.287V61.7988H71.3056V71.8548Z" fill="#C42128"/>
</g>
<g id="Group_22">
<path id="Vector_21" d="M63.8099 49.1829H55.2166C54.851 49.1829 54.4854 48.8173 54.4854 48.4516V25.9628C54.4854 25.5971 54.851 25.2314 55.2166 25.2314H63.8099C64.1756 25.2314 64.5413 25.5971 64.5413 25.9628V48.4516C64.5413 48.8173 64.1756 49.1829 63.8099 49.1829ZM56.1308 47.5374H62.8957V26.6941H56.1308V47.5374Z" fill="#C42128"/>
</g>
<g id="Group_23">
<path id="Vector_22" d="M66.1865 26.6938H52.8395C52.4738 26.6938 52.1081 26.5109 52.1081 26.1453L49 16.8207C49 16.6378 49 16.2721 49.1828 16.0893C49.3656 15.9065 49.5485 15.7236 49.9142 15.7236H69.2947C69.4776 15.7236 69.8433 15.9065 70.0261 16.0893C70.2089 16.2721 70.2089 16.6378 70.2089 16.8207L67.1007 26.1453C66.735 26.5109 66.5522 26.6938 66.1865 26.6938ZM53.388 25.0483H65.4552L68.0148 17.3692H50.8284L53.388 25.0483Z" fill="#C42128"/>
</g>
<g id="Group_24">
<path id="Vector_23" d="M63.4439 17.3692H55.582C55.2163 17.3692 54.8506 17.0035 54.8506 16.6378V9.87293C54.8506 9.50726 55.2163 9.1416 55.582 9.1416H63.4439C63.8096 9.1416 64.1753 9.50726 64.1753 9.87293V16.6378C64.3581 17.0035 63.9924 17.3692 63.4439 17.3692ZM56.4962 15.7237H62.7126V10.6043H56.4962V15.7237Z" fill="#C42128"/>
</g>
<g id="Group_25">
<path id="Vector_24" d="M59.6044 14.0783C59.2388 14.0783 58.873 13.7127 58.873 13.347V0.731332C58.873 0.36566 59.2388 0 59.6044 0C59.9701 0 60.3357 0.36566 60.3357 0.731332V13.1642C60.3357 13.7127 59.9701 14.0783 59.6044 14.0783Z" fill="#C42128"/>
</g>
<g id="Group_26">
<path id="Vector_25" d="M67.8324 21.3914H53.5712C53.2056 21.3914 52.8398 21.0257 52.8398 20.66C52.8398 20.2944 53.2056 19.9287 53.5712 19.9287H67.8324C68.1981 19.9287 68.5637 20.2944 68.5637 20.66C68.5637 21.0257 68.3809 21.3914 67.8324 21.3914Z" fill="#C42128"/>
</g>
<g id="Group_27">
<path id="Vector_26" d="M67.1003 23.9519H55.7645C55.3988 23.9519 55.0332 23.5863 55.0332 23.2206C55.0332 22.8549 55.3988 22.4893 55.7645 22.4893H67.1003C67.466 22.4893 67.8317 22.8549 67.8317 23.2206C67.8317 23.5863 67.466 23.9519 67.1003 23.9519Z" fill="#C42128"/>
</g>
<g id="Group_28">
<path id="Vector_27" d="M58.6904 26.6935C58.3247 26.6935 57.959 26.3279 57.959 25.9622V18.2831C57.959 17.9174 58.3247 17.5518 58.6904 17.5518C59.056 17.5518 59.4216 17.9174 59.4216 18.2831V25.9622C59.6045 26.3279 59.2389 26.6935 58.6904 26.6935Z" fill="#C42128"/>
</g>
<g id="Group_29">
<path id="Vector_28" d="M62.3466 26.6941C61.981 26.6941 61.6152 26.3284 61.6152 25.9628V18.6493C61.6152 18.2837 61.981 17.918 62.3466 17.918C62.7123 17.918 63.0779 18.2837 63.0779 18.6493V25.9628C63.2607 26.3284 62.8951 26.6941 62.3466 26.6941Z" fill="#C42128"/>
</g>
<g id="Group_30">
<path id="Vector_29" d="M92.6981 49.1829H71.4892C71.1235 49.1829 70.7578 48.8172 70.7578 48.4515V32.5448C70.7578 32.1791 71.1235 31.8135 71.4892 31.8135H92.6981C93.0638 31.8135 93.4295 32.1791 93.4295 32.5448V48.4515C93.6123 48.8172 93.0638 49.1829 92.6981 49.1829ZM72.4034 47.5374H91.9668V33.2762H72.4034V47.5374Z" fill="#C42128"/>
</g>
<g id="Group_31">
<path id="Vector_30" d="M97.2688 33.2762H66.7352C66.3695 33.2762 66.0039 32.9105 66.0039 32.5448C66.0039 32.1791 66.3695 31.8135 66.7352 31.8135H97.2688C97.6344 31.8135 98.0002 32.1791 98.0002 32.5448C98.0002 32.9105 97.6344 33.2762 97.2688 33.2762Z" fill="#C42128"/>
</g>
<g id="Group_32">
<path id="Vector_31" d="M91.9669 33.2762H72.2205C71.8549 33.2762 71.4893 32.9105 71.4893 32.5449V24.3173C71.4893 23.9516 71.8549 23.5859 72.2205 23.5859H91.9669C92.3326 23.5859 92.6982 23.9516 92.6982 24.3173V32.5449C92.881 32.9105 92.5154 33.2762 91.9669 33.2762ZM72.9519 31.6307H91.0527V25.0486H72.9519V31.6307Z" fill="#C42128"/>
</g>
<g id="Group_33">
<path id="Vector_32" d="M74.9627 33.2762C74.597 33.2762 74.2314 32.9105 74.2314 32.5448V27.6083C74.2314 27.2426 74.597 26.877 74.9627 26.877C75.3284 26.877 75.6941 27.2426 75.6941 27.6083V32.5448C75.6941 32.9105 75.3284 33.2762 74.9627 33.2762Z" fill="#C42128"/>
</g>
<g id="Group_34">
<path id="Vector_33" d="M78.4365 33.2762C78.0708 33.2762 77.7051 32.9105 77.7051 32.5448V27.6083C77.7051 27.2426 78.0708 26.877 78.4365 26.877C78.8021 26.877 79.1679 27.2426 79.1679 27.6083V32.5448C79.3507 32.9105 78.985 33.2762 78.4365 33.2762Z" fill="#C42128"/>
</g>
<g id="Group_35">
<path id="Vector_34" d="M82.0937 33.2762C81.728 33.2762 81.3623 32.9105 81.3623 32.5448V27.6083C81.3623 27.2426 81.728 26.877 82.0937 26.877C82.4594 26.877 82.8251 27.2426 82.8251 27.6083V32.5448C82.8251 32.9105 82.4594 33.2762 82.0937 33.2762Z" fill="#C42128"/>
</g>
<g id="Group_36">
<path id="Vector_35" d="M85.7499 33.2762C85.3843 33.2762 85.0186 32.9105 85.0186 32.5448V27.6083C85.0186 27.2426 85.3843 26.877 85.7499 26.877C86.1156 26.877 86.4813 27.2426 86.4813 27.6083V32.5448C86.4813 32.9105 86.1156 33.2762 85.7499 33.2762Z" fill="#C42128"/>
</g>
<g id="Group_37">
<path id="Vector_36" d="M89.2236 33.2762C88.8579 33.2762 88.4922 32.9105 88.4922 32.5448V27.6083C88.4922 27.2426 88.8579 26.877 89.2236 26.877C89.5892 26.877 89.9549 27.2426 89.9549 27.6083V32.5448C90.1377 32.9105 89.7721 33.2762 89.2236 33.2762Z" fill="#C42128"/>
</g>
<g id="Group_38">
<path id="Vector_37" d="M84.8356 22.8548C83.19 22.8548 81.3617 22.1235 80.0819 20.8436C77.5222 18.2839 77.5222 13.8959 80.0819 11.3362C80.2647 11.1533 80.4475 11.1533 80.6304 11.1533C80.8132 11.1533 80.996 11.1533 81.1789 11.3362L85.3841 15.5414L89.5893 19.7466C89.9549 20.1123 89.9549 20.6608 89.5893 20.8436C88.4922 22.1235 86.6639 22.8548 84.8356 22.8548ZM80.6304 12.9817C79.1677 14.9929 79.3505 17.7354 81.1789 19.5638C83.0072 21.3921 85.7497 21.575 87.7609 20.1123L84.2871 16.4556L80.6304 12.9817Z" fill="#C42128"/>
</g>
<g id="Group_39">
<path id="Vector_38" d="M82.0937 25.231C81.728 25.231 81.3623 24.8654 81.3623 24.4997V21.3915C81.3623 21.0258 81.728 20.6602 82.0937 20.6602C82.4594 20.6602 82.8251 21.0258 82.8251 21.3915V24.4997C82.8251 24.8654 82.4594 25.231 82.0937 25.231Z" fill="#C42128"/>
</g>
<g id="Group_40">
<path id="Vector_39" d="M84.8354 16.8209C84.6526 16.8209 84.4698 16.8209 84.2869 16.6381C83.9213 16.2724 83.9213 15.7239 84.2869 15.5411L86.1153 13.7127C86.481 13.3471 87.0294 13.3471 87.2123 13.7127C87.5779 14.0784 87.5779 14.6269 87.2123 14.8097L85.3839 16.6381C85.2011 16.8209 85.0183 16.8209 84.8354 16.8209Z" fill="#C42128"/>
</g>
<g id="Group_41">
<path id="Vector_40" d="M22.6713 28.3396C22.4885 28.3396 22.3056 28.3396 22.1228 28.1568C21.7571 27.9739 21.7571 27.6082 21.9399 27.2426L23.4027 23.9515L19.0146 26.3284C18.2832 26.6941 17.7348 27.0598 17.0034 27.4254C16.6378 27.6083 16.2721 27.6083 16.0892 27.4254L9.87279 22.1232C9.68996 21.9403 9.50716 21.5747 9.69 21.209C9.87284 20.8433 10.0556 20.6605 10.4213 20.6605L14.2609 20.112C14.4437 20.112 14.8093 20.112 14.9922 20.2948L16.8205 21.9404C17.9175 21.209 19.3802 20.112 20.8429 19.015C25.4138 15.5411 30.8989 11.7015 33.8242 12.0672L39.4922 12.7986C39.8579 12.7986 40.0406 13.1642 40.2235 13.5299C40.2235 13.8956 40.2236 14.2612 39.8579 14.4441L29.9847 20.112L27.6079 24.6829C27.6079 24.8657 27.425 24.8657 27.425 25.0486L23.2198 28.1568C23.0369 28.1568 22.8541 28.3396 22.6713 28.3396ZM12.0668 21.9404L16.4548 25.7799C17.0033 25.597 17.3691 25.2314 17.9176 25.0486L18.8318 24.5L24.4996 21.209C24.8653 21.0262 25.231 21.0262 25.4138 21.3918C25.5967 21.5747 25.7795 21.9403 25.5966 22.306L24.3169 25.0486L25.7795 23.9515L28.5221 19.015C28.5221 18.8321 28.7049 18.8321 28.8877 18.6493L36.7497 14.0784L33.4586 13.7127C31.0818 13.3471 25.7795 17.3694 21.5743 20.2948C19.746 21.7575 18.1004 22.8545 16.8205 23.5859C16.4549 23.7687 16.0892 23.7687 15.9063 23.403L13.8952 21.5747L12.0668 21.9404Z" fill="#C42128"/>
</g>
</g>
</g>
</svg>
