<svg width="98" height="101" viewBox="0 0 98 101" fill="none" xmlns="http://www.w3.org/2000/svg">
<g id="B_-_87_x2C__blueprint_x2C__Architecture_x2C__blue_print_x2C__construction_x2C__paper_x2C__plan_1_">
<g id="Group">
<g id="Group_2">
<path id="Vector" d="M18.2366 56.921C18.0524 56.921 17.684 56.921 17.4998 56.7368C15.8419 56.3684 14.7366 54.5263 15.2893 52.8684L25.4208 16.0263C25.4208 15.6578 25.7893 15.4736 25.9735 15.4736C26.3419 15.4736 26.5261 15.4736 26.7103 15.6579C27.6314 16.7631 28.9208 17.5 30.3945 17.5C30.5787 17.5 30.9472 17.6842 30.9472 17.8684C30.9472 18.0526 31.1314 18.2368 31.1314 18.6052L21.3682 54.5263C20.8156 55.9999 19.5261 56.921 18.2366 56.921ZM26.1577 17.8684L16.3945 53.421C16.2103 54.1579 16.5787 55.0789 17.4998 55.2631C18.2366 55.4473 19.1577 55.0789 19.3419 54.1578L29.1051 19.1578C28.184 18.9736 27.0787 18.421 26.1577 17.8684Z" fill="#C42128"/>
</g>
<g id="Group_3">
<path id="Vector_2" d="M42.7365 56.9211C41.2628 56.9211 39.9734 56.0001 39.605 54.5264L29.8418 18.6053C29.8418 18.4211 29.8418 18.0527 30.026 17.8685C30.2102 17.6843 30.3944 17.5001 30.5786 17.5001C32.0523 17.5001 33.3418 16.7632 34.2629 15.658C34.4471 15.4738 34.8155 15.2896 35.1839 15.4738C35.5523 15.4738 35.7365 15.8422 35.7365 16.2106L45.8681 53.0527C46.0523 53.7895 46.0523 54.7106 45.4997 55.4474C45.1313 56.1843 44.3944 56.7369 43.6576 56.9211C43.2892 56.9211 43.105 56.9211 42.7365 56.9211ZM31.8681 19.158L41.4471 54.158C41.6313 54.8948 42.5523 55.4475 43.2892 55.2632C43.6576 55.079 44.026 54.8948 44.2102 54.5264C44.3944 54.158 44.3944 53.7896 44.3944 53.4211L34.6313 17.8685C33.8944 18.4211 32.9734 18.7895 31.8681 19.158Z" fill="#C42128"/>
</g>
<g id="Group_4">
<path id="Vector_3" d="M30.5785 19.1576C26.7101 19.1576 23.7627 16.026 23.7627 12.1576C23.7627 8.28916 26.8943 5.3418 30.5785 5.3418C34.4469 5.3418 37.5785 8.47337 37.5785 12.1576C37.3943 16.2102 34.4469 19.1576 30.5785 19.1576ZM30.5785 6.99968C27.6311 6.99968 25.4206 9.39442 25.4206 12.1576C25.4206 15.1049 27.8153 17.4997 30.5785 17.4997C33.5259 17.4997 35.9206 15.1049 35.9206 12.1576C35.7364 9.39442 33.5259 6.99968 30.5785 6.99968Z" fill="#C42128"/>
</g>
<g id="Group_5">
<path id="Vector_4" d="M30.5787 16.0266C28.5524 16.0266 26.8945 14.3687 26.8945 12.3424C26.8945 10.3161 28.5524 8.6582 30.5787 8.6582C32.6051 8.6582 34.263 10.3161 34.263 12.3424C34.263 14.3687 32.6051 16.0266 30.5787 16.0266ZM30.5787 10.3161C29.4735 10.3161 28.5524 11.2372 28.5524 12.3424C28.5524 13.4477 29.4735 14.3687 30.5787 14.3687C31.684 14.3687 32.6051 13.4477 32.6051 12.3424C32.6051 11.2372 31.684 10.3161 30.5787 10.3161Z" fill="#C42128"/>
</g>
<g id="Group_6">
<path id="Vector_5" d="M32.2366 7.36842H32.0524C31.684 7.18421 31.1313 7.1842 30.7629 7.1842C30.2103 7.1842 29.8418 7.18421 29.4734 7.36842C29.2892 7.36842 28.9208 7.36841 28.7366 7.1842C28.5524 6.99999 28.3682 6.81579 28.3682 6.44737V2.39471C28.3682 1.10524 29.4734 0 30.7629 0C32.0524 0 33.1576 1.10524 33.1576 2.39471V6.44737C33.1576 6.63158 32.9734 6.99999 32.7892 7.1842C32.605 7.1842 32.4208 7.36842 32.2366 7.36842ZM30.5787 5.34209C30.7629 5.34209 31.1313 5.34209 31.3155 5.34209V2.39471C31.3155 2.02629 30.9471 1.65788 30.5787 1.65788C30.2103 1.65788 29.8418 2.02629 29.8418 2.39471V5.34209C30.0261 5.34209 30.3945 5.34209 30.5787 5.34209Z" fill="#C42128"/>
</g>
<g id="Group_7">
<path id="Vector_6" d="M16.0261 62.4474H15.8419C15.4734 62.2632 15.105 61.8948 15.2892 61.5264L16.7629 56.0001C16.9471 55.6317 17.3155 55.2632 17.684 55.4474C18.0524 55.6316 18.4208 56.0001 18.2366 56.3685L16.7629 61.8948C16.7629 62.2632 16.3945 62.4474 16.0261 62.4474Z" fill="#C42128"/>
</g>
<g id="Group_8">
<path id="Vector_7" d="M45.1316 62.4471C44.7632 62.4471 44.3948 62.2628 44.3948 61.8944L42.9211 56.3681C42.7369 55.9997 43.1053 55.4471 43.4737 55.2629C43.8421 55.0787 44.3947 55.4471 44.579 55.8155L46.0526 61.3418C46.2369 61.7102 45.8684 62.2629 45.5 62.4471C45.1316 62.4471 45.1316 62.4471 45.1316 62.4471Z" fill="#C42128"/>
</g>
<g id="Group_9">
<path id="Vector_8" d="M32.4208 48.6313H29.105C28.7366 48.6313 28.3682 48.2629 28.3682 47.8945V44.5787C28.3682 44.2102 28.7366 43.8418 29.105 43.8418H32.4208C32.7892 43.8418 33.1576 44.2102 33.1576 44.5787V47.8945C33.3418 48.2629 32.7892 48.6313 32.4208 48.6313ZM30.0261 46.9734H31.684V45.3155H30.0261V46.9734Z" fill="#C42128"/>
</g>
<g id="Group_10">
<path id="Vector_9" d="M19.526 40.3418C19.1575 40.3418 18.9733 40.1576 18.7891 39.9734C17.8681 38.1313 17.3154 36.105 17.3154 34.0787C17.3154 33.7102 17.6839 33.3418 18.0523 33.3418C18.4207 33.3418 18.9733 33.3418 18.9733 33.8944C18.9733 35.7365 19.3417 37.5786 20.2628 39.0523C20.447 39.4208 20.2628 39.9734 19.8944 40.1576C19.8944 40.1576 19.7102 40.3418 19.526 40.3418Z" fill="#C42128"/>
</g>
<g id="Group_11">
<path id="Vector_10" d="M29.1049 46.7896C26.8943 46.4212 24.6838 45.6843 23.0259 44.3948C22.6575 44.2106 22.6575 43.658 22.8417 43.2896C23.0259 42.9212 23.5785 42.9212 23.947 43.1054C25.2364 44.0264 26.7101 44.7633 28.368 44.9475V44.3948C28.368 44.0264 28.7364 43.658 29.1049 43.658H32.4207C32.7891 43.658 33.1575 44.0264 33.1575 44.3948V44.9475C34.6312 44.5791 35.9206 44.0264 37.2101 43.1054C37.5785 42.9212 38.1312 42.9212 38.3154 43.2896C38.4996 43.658 38.4996 44.2106 38.1312 44.3948C36.4733 45.5001 34.447 46.4211 32.4207 46.6054C32.2364 46.6054 31.868 46.6054 31.6838 46.4212C31.4996 46.237 31.3154 46.0527 31.3154 45.8685V45.1317H29.6575V45.8685C29.6575 46.0527 29.4733 46.4212 29.2891 46.4212C29.4733 46.7896 29.2891 46.7896 29.1049 46.7896Z" fill="#C42128"/>
</g>
<g id="Group_12">
<path id="Vector_11" d="M41.4478 40.3421C41.2636 40.3421 41.2636 40.342 41.0794 40.1578C40.7109 39.9736 40.5267 39.421 40.7109 39.0526C41.632 37.3947 42.0004 35.5526 42.0004 33.7105C42.0004 33.342 42.3688 32.9736 42.7373 32.9736C43.1057 32.9736 43.4741 33.342 43.4741 33.7105C43.4741 35.921 42.9215 37.9473 42.0004 39.7894C42.0004 40.1578 41.8162 40.3421 41.4478 40.3421Z" fill="#C42128"/>
</g>
<g id="Group_13">
<path id="Vector_12" d="M35.5526 65.026C19.8947 65.026 11.0526 61.526 6.44737 57.8418C0.552631 53.4207 0 48.4471 0 48.2628C0 47.8944 0.36842 47.3418 0.736841 47.3418C1.10526 47.3418 1.65789 47.7102 1.65789 48.0786C1.65789 48.0786 2.21053 52.6839 7.55263 56.5523C14.1842 61.526 29.1053 66.4997 61.7105 60.7892C62.0789 60.7892 62.6316 60.9734 62.6316 61.526C62.6316 62.0786 62.4474 62.4471 61.8947 62.4471C51.5789 64.2892 42.7368 65.026 35.5526 65.026Z" fill="#C42128"/>
</g>
<g id="Group_14">
<path id="Vector_13" d="M96.895 11.6053C96.5266 11.6053 96.1582 11.2369 96.1582 10.8685C96.1582 10.6843 96.1582 10.3159 96.1582 10.1316C96.1582 9.94743 96.1582 9.57899 96.3424 9.39478C96.5266 9.21057 96.7108 9.02637 96.895 9.02637C97.2635 9.02637 97.6319 9.39478 97.6319 9.7632V10.6843C97.6319 11.2369 97.2635 11.6053 96.895 11.6053Z" fill="#C42128"/>
</g>
<g id="Group_15">
<path id="Vector_14" d="M85.8421 84.3688H75.8947C75.5263 84.3688 75.1579 84.0004 75.1579 83.632V51.0267L72.3947 45.5004L69.8158 51.0267V83.632C69.8158 84.0004 69.4474 84.3688 69.0789 84.3688H0.736841C0.36842 84.3688 0 84.0004 0 83.632V9.94777C0 9.57935 0.36842 9.21094 0.736841 9.21094H24.6842C25.0526 9.21094 25.2368 9.39514 25.4211 9.57935C25.6053 9.76356 25.6053 10.132 25.4211 10.3162C25.2368 10.8688 25.0526 11.6057 25.0526 12.3425C25.0526 15.2899 27.4474 17.6846 30.2105 17.6846C33.1579 17.6846 35.5526 15.2899 35.5526 12.3425C35.5526 11.6057 35.3684 10.8688 35.1842 10.3162C35 10.132 35.1842 9.76356 35.1842 9.57935C35.3684 9.39514 35.5526 9.21094 35.921 9.21094H84.5526C84.7368 9.21094 85.1053 9.39514 85.1053 9.57935C85.2895 9.76356 85.2895 9.94776 85.2895 10.3162C85.2895 10.5004 85.2895 10.6846 85.2895 11.053V68.8951C86.5789 67.4214 88.421 66.3162 90.4474 66.3162C93.9474 66.3162 96.7105 69.0793 97.2632 72.5793C97.2632 72.7635 97.2632 72.7635 97.2632 72.9478C97.6316 79.2109 92.4737 84.3688 85.8421 84.3688ZM77 82.7109H86.0263C91.3684 82.7109 95.9737 78.4741 96.1579 73.132C95.9737 70.1846 93.7632 67.7899 91 67.7899C88.2368 67.7899 86.0263 70.1846 85.8421 73.132C85.8421 73.5004 85.4737 73.8688 85.1053 73.8688C84.7368 73.8688 84.3684 73.5004 84.3684 73.132C84.3684 72.9478 84.3684 72.9478 84.3684 72.7636V10.8688H37.3947C37.5789 11.4215 37.5789 11.7899 37.5789 12.3425C37.5789 16.2109 34.4474 19.3425 30.5789 19.3425C26.7105 19.3425 23.7632 16.2109 23.7632 12.3425C23.7632 11.7899 23.7632 11.2372 23.9474 10.8688H1.65789V82.8951H68.1579V50.8425C68.1579 50.6583 68.1579 50.6583 68.1579 50.4741L71.6579 43.1057C71.8421 42.7372 72.0263 42.553 72.3947 42.553C72.7632 42.553 72.9474 42.7372 73.1316 43.1057L76.6316 50.4741C76.6316 50.6583 76.6316 50.6583 76.6316 50.8425V82.7109H77Z" fill="#C42128"/>
</g>
<g id="Group_16">
<path id="Vector_15" d="M96.8945 73.8688C96.526 73.8688 96.1576 73.5004 96.1576 73.1319C95.9734 70.1846 93.7629 67.7898 90.9997 67.7898C88.2366 67.7898 86.0261 70.1846 85.8418 73.1319C85.8418 73.5004 85.4734 73.8688 85.105 73.8688C84.7366 73.8688 84.3682 73.5004 84.3682 73.1319C84.3682 72.9477 84.3682 72.9477 84.3682 72.7635V10.8688C84.3682 6.81614 87.4997 3.68457 91.1839 3.68457C94.8682 3.68457 97.9997 7.00035 97.9997 10.8688V72.5793V72.7635C97.9997 72.7635 97.9997 72.7635 97.9997 72.9477C97.6313 73.5003 97.2629 73.8688 96.8945 73.8688ZM90.6313 66.1319C92.6576 66.1319 94.4997 67.053 95.7892 68.7109V10.8688C95.7892 7.73719 93.3945 5.34245 90.6313 5.34245C87.8682 5.34245 85.4734 7.9214 85.4734 10.8688V68.7109C86.7629 67.053 88.605 66.1319 90.6313 66.1319Z" fill="#C42128"/>
</g>
<g id="Group_17">
<path id="Vector_16" d="M72.395 87.1316C72.0266 87.1316 71.6582 86.7632 71.6582 86.3948V55.2632C71.6582 54.8948 72.0266 54.5264 72.395 54.5264C72.7635 54.5264 73.1319 54.8948 73.1319 55.2632V86.2106C73.3161 86.7632 72.9477 87.1316 72.395 87.1316Z" fill="#C42128"/>
</g>
<g id="Group_18">
<path id="Vector_17" d="M75.8951 91.0001H68.895C68.5266 91.0001 68.1582 90.6317 68.1582 90.2633V50.8422C68.1582 50.658 68.1582 50.658 68.1582 50.4738L71.6582 43.1054C71.8424 42.737 72.0266 42.5527 72.3951 42.5527C72.7635 42.5527 72.9477 42.737 73.1319 43.1054L76.6319 50.4738C76.6319 50.658 76.6319 50.658 76.6319 50.8422V90.079C77.0003 90.6317 76.6319 91.0001 75.8951 91.0001ZM69.8161 89.3422H75.1582V51.0264L72.3951 45.5001L69.8161 51.0264V89.3422Z" fill="#C42128"/>
</g>
<g id="Group_19">
<path id="Vector_18" d="M75.8951 93.9474H68.895C68.5266 93.9474 68.1582 93.579 68.1582 93.2106V90.2632C68.1582 89.8948 68.5266 89.5264 68.895 89.5264H75.8951C76.2635 89.5264 76.6319 89.8948 76.6319 90.2632V93.2106C77.0003 93.579 76.6319 93.9474 75.8951 93.9474ZM69.8161 92.2895H75.1582V91.0001H69.8161V92.2895Z" fill="#C42128"/>
</g>
<g id="Group_20">
<path id="Vector_19" d="M74.0526 100.947H70.7368C69.2631 100.947 67.9736 99.6575 67.9736 98.1838V93.0259C67.9736 92.6575 68.3421 92.2891 68.7105 92.2891H75.7105C76.0789 92.2891 76.4473 92.6575 76.4473 93.0259V98.1838C76.9999 99.6575 75.5263 100.947 74.0526 100.947ZM69.8157 93.947V98.368C69.8157 98.9206 70.3684 99.4733 70.921 99.4733H74.2368C74.7894 99.4733 75.3421 98.9206 75.3421 98.368V93.947H69.8157Z" fill="#C42128"/>
</g>
<g id="Group_21">
<path id="Vector_20" d="M75.8951 55.8153H68.895C68.5266 55.8153 68.1582 55.4468 68.1582 55.0784V51.0258C68.1582 50.8416 68.1582 50.8416 68.1582 50.6574L71.6582 43.289C71.8424 42.9205 72.0266 42.7363 72.3951 42.7363C72.7635 42.7363 72.9477 42.9205 73.1319 43.289L76.6319 50.6574C76.6319 50.8416 76.6319 50.8416 76.6319 51.0258V55.0784C77.0003 55.4468 76.6319 55.8153 75.8951 55.8153ZM69.8161 54.1574H75.1582V51.21L72.3951 45.6837L69.8161 51.21V54.1574Z" fill="#C42128"/>
</g>
<g id="Group_22">
<path id="Vector_21" d="M92.8423 37.9473C92.4739 37.9473 92.1055 37.5789 92.1055 37.2105V12.7105C92.1055 12.342 92.4739 11.9736 92.8423 11.9736C93.2107 11.9736 93.5792 12.342 93.5792 12.7105V37.0262C93.5792 37.5789 93.2107 37.9473 92.8423 37.9473Z" fill="#C42128"/>
</g>
<g id="Group_23">
<path id="Vector_22" d="M92.8423 59.5002C92.4739 59.5002 92.1055 59.1318 92.1055 58.7634V45.8687C92.1055 45.5002 92.4739 45.1318 92.8423 45.1318C93.2107 45.1318 93.5792 45.5002 93.5792 45.8687V58.7634C93.5792 59.1318 93.2107 59.5002 92.8423 59.5002Z" fill="#C42128"/>
</g>
<g id="Group_24">
<path id="Vector_23" d="M44.7635 89.1583H7.92141C7.55299 89.1583 7.18457 88.7899 7.18457 88.4214C7.18457 88.053 7.55299 87.6846 7.92141 87.6846H44.3951C44.7635 87.6846 45.1319 88.053 45.1319 88.4214C45.3161 88.7899 45.1319 89.1583 44.7635 89.1583Z" fill="#C42128"/>
</g>
<g id="Group_25">
<path id="Vector_24" d="M56 92.1055H27.2632C26.8948 92.1055 26.5264 91.7371 26.5264 91.3687C26.5264 91.0002 26.8948 90.6318 27.2632 90.6318H56C56.3685 90.6318 56.7369 91.0002 56.7369 91.3687C56.7369 91.7371 56.5527 92.1055 56 92.1055Z" fill="#C42128"/>
</g>
<g id="Group_26">
<path id="Vector_25" d="M64.658 92.1055H59.3159C58.9475 92.1055 58.5791 91.7371 58.5791 91.3687C58.5791 91.0002 58.9475 90.6318 59.3159 90.6318H64.658C65.0265 90.6318 65.3949 91.0002 65.3949 91.3687C65.3949 91.7371 65.0265 92.1055 64.658 92.1055Z" fill="#C42128"/>
</g>
<g id="Group_27">
<path id="Vector_26" d="M15.1057 92.1055H1.47415C1.10573 92.1055 0.737305 91.7371 0.737305 91.3687C0.737305 91.0002 1.10573 90.6318 1.47415 90.6318H15.1057C15.4741 90.6318 15.8426 91.0002 15.8426 91.3687C15.8426 91.7371 15.6584 92.1055 15.1057 92.1055Z" fill="#C42128"/>
</g>
<g id="Group_28">
<path id="Vector_27" d="M84.553 18.7891H46.4214C46.053 18.7891 45.6846 18.4207 45.6846 18.0523C45.6846 17.6838 46.053 17.3154 46.4214 17.3154H84.7372C85.1056 17.3154 85.474 17.6838 85.474 18.0523C85.474 18.4207 85.1056 18.7891 84.553 18.7891Z" fill="#C42128"/>
</g>
</g>
</g>
</svg>
