<svg width="139" height="99" viewBox="0 0 139 99" fill="none" xmlns="http://www.w3.org/2000/svg">
<g id="B_-_8_x2C__home_x2C__house_x2C__building_x2C__appartment_1_">
<g id="Group">
<g id="Group_2">
<path id="Vector" d="M129.093 94.1927H71.8015C71.3011 94.1927 70.8008 93.6924 70.8008 93.192V34.6498C70.8008 34.3996 71.051 34.1494 71.051 33.8992L99.5715 7.38015C100.072 6.87979 100.572 6.87979 101.073 7.38015L129.593 33.6491C129.843 33.8993 129.843 34.1494 129.843 34.3996V92.9418C130.094 93.6924 129.593 94.1927 129.093 94.1927ZM72.8022 91.9411H127.842V34.9L100.322 9.63176L72.8022 34.9V91.9411Z" fill="#C42128"/>
</g>
<g id="Group_3">
<path id="Vector_2" d="M137.6 43.6565C137.349 43.6565 137.099 43.6565 136.849 43.4063L100.323 9.63198L63.7964 43.4063C63.5462 43.6565 63.0458 43.9067 62.5455 43.6565C62.0451 43.4064 61.7949 43.1561 61.7949 42.6558V35.6507C61.7949 35.4006 62.0451 35.1504 62.0451 34.9002L99.5722 0.375271C100.073 -0.12509 100.573 -0.12509 101.073 0.375271L138.35 34.65C138.6 34.9002 138.6 35.1504 138.6 35.4005V42.4056C138.6 42.906 138.35 43.1562 137.85 43.4063C137.85 43.6565 137.6 43.6565 137.6 43.6565ZM64.2967 35.9009V39.9038L99.5722 7.38037C100.073 6.88001 100.573 6.88001 101.073 7.38037L136.349 39.9038V35.9009L100.323 2.62688L64.2967 35.9009Z" fill="#C42128"/>
</g>
<g id="Group_4">
<path id="Vector_3" d="M126.341 26.3939C126.091 26.3939 125.841 26.394 125.591 26.1438L119.336 20.1394C119.086 19.8892 119.086 19.6391 119.086 19.3889V14.6355C119.086 14.1351 119.586 13.6348 120.087 13.6348H126.341C126.842 13.6348 127.342 14.1351 127.342 14.6355V25.3932C127.342 25.8936 127.092 26.1437 126.591 26.3939C126.591 26.3939 126.591 26.3939 126.341 26.3939ZM121.087 18.8885L125.09 22.6412V15.6362H121.087V18.8885Z" fill="#C42128"/>
</g>
<g id="Group_5">
<path id="Vector_4" d="M71.8013 94.1927H12.5085C12.0082 94.1927 11.5078 93.6924 11.5078 93.192V62.1697C11.5078 61.6693 12.0082 61.1689 12.5085 61.1689H71.8013C72.3017 61.1689 72.802 61.6693 72.802 62.1697V92.9418C72.802 93.6924 72.3017 94.1927 71.8013 94.1927ZM13.7594 91.9411H70.5504V63.4206H13.7594V91.9411Z" fill="#C42128"/>
</g>
<g id="Group_6">
<path id="Vector_5" d="M71.8022 63.4208H6.00476C5.5044 63.4208 5.25422 63.1706 5.00404 62.9204C4.75386 62.6702 4.75386 62.1699 5.00404 61.6695L11.5087 51.9125C11.7589 51.6623 12.0091 51.4121 12.5095 51.4121H71.8022C72.3026 51.4121 72.803 51.9125 72.803 52.4129V62.1699C72.803 62.9205 72.3026 63.4208 71.8022 63.4208ZM8.25639 61.1692H70.5513V53.6638H13.26L8.25639 61.1692Z" fill="#C42128"/>
</g>
<g id="Group_7">
<path id="Vector_6" d="M71.802 53.664H34.5251C34.0248 53.664 33.5244 53.1636 33.5244 52.6632V42.656C33.5244 42.1556 34.0248 41.6553 34.5251 41.6553H71.802C72.3024 41.6553 72.8028 42.1556 72.8028 42.656V52.6632C72.8028 53.1636 72.3024 53.664 71.802 53.664ZM35.5259 51.4123H70.5511V43.6568H35.5259V51.4123Z" fill="#C42128"/>
</g>
<g id="Group_8">
<path id="Vector_7" d="M71.8018 43.6569H28.2704C27.77 43.6569 27.5198 43.4067 27.2697 43.1565C27.0195 42.9063 27.0195 42.406 27.2697 41.9056L31.5227 35.1507C31.7729 34.9005 32.0231 34.6504 32.5235 34.6504H62.7953C63.2957 34.6504 63.796 35.1507 63.796 35.6511V39.9042L69.0498 34.9006C69.3 34.6504 69.5502 34.6504 69.8004 34.6504H71.5516C72.052 34.6504 72.5523 35.1507 72.5523 35.6511V42.406C72.8025 43.1565 72.3022 43.6569 71.8018 43.6569ZM66.0476 41.4052H70.5509V37.1522L66.0476 41.4052ZM30.522 41.4052H62.0448V36.902H33.274L30.522 41.4052Z" fill="#C42128"/>
</g>
<g id="Group_9">
<path id="Vector_8" d="M94.0678 46.6584H86.3122C85.8119 46.6584 85.3115 46.1581 85.3115 45.6577V31.1473C85.3115 30.6469 85.8119 30.1465 86.3122 30.1465H94.0678C94.5682 30.1465 95.0686 30.6469 95.0686 31.1473V45.6577C95.0686 46.1581 94.5682 46.6584 94.0678 46.6584ZM87.5632 44.4068H93.0671V31.8978H87.5632V44.4068Z" fill="#C42128"/>
</g>
<g id="Group_10">
<path id="Vector_9" d="M114.333 46.6584H93.8181C93.3177 46.6584 92.8174 46.1581 92.8174 45.6577V31.1473C92.8174 30.6469 93.3177 30.1465 93.8181 30.1465H114.333C114.833 30.1465 115.334 30.6469 115.334 31.1473V45.6577C115.584 46.1581 115.083 46.6584 114.333 46.6584ZM95.069 44.4068H113.332V31.8978H95.069V44.4068Z" fill="#C42128"/>
</g>
<g id="Group_11">
<path id="Vector_10" d="M34.0245 94.1931H22.7663C22.266 94.1931 21.7656 93.6928 21.7656 93.1924V71.1766C21.7656 70.6762 22.266 70.1758 22.7663 70.1758H34.2746C34.775 70.1758 35.2754 70.6762 35.2754 71.1766V93.1924C35.0252 93.6928 34.5248 94.1931 34.0245 94.1931ZM23.7671 91.9415H32.7736V72.1773H23.7671V91.9415Z" fill="#C42128"/>
</g>
<g id="Group_12">
<path id="Vector_11" d="M64.7968 85.687H41.53C41.0297 85.687 40.5293 85.1867 40.5293 84.6863V71.1766C40.5293 70.6762 41.0297 70.1758 41.53 70.1758H64.7968C65.2972 70.1758 65.7975 70.6762 65.7975 71.1766V84.4361C65.7975 85.1866 65.2972 85.687 64.7968 85.687ZM42.5307 83.4354H63.5459V72.1773H42.5307V83.4354Z" fill="#C42128"/>
</g>
<g id="Group_13">
<path id="Vector_12" d="M64.7964 76.9301H44.782C44.2816 76.9301 43.7812 76.4298 43.7812 75.9294C43.7812 75.4291 44.2816 74.9287 44.782 74.9287H64.7964C65.2968 74.9287 65.7971 75.4291 65.7971 75.9294C65.7971 76.4298 65.2968 76.9301 64.7964 76.9301Z" fill="#C42128"/>
</g>
<g id="Group_14">
<path id="Vector_13" d="M64.7964 80.6831H44.782C44.2816 80.6831 43.7812 80.1827 43.7812 79.6823C43.7812 79.182 44.2816 78.6816 44.782 78.6816H64.7964C65.2968 78.6816 65.7971 79.182 65.7971 79.6823C65.7971 80.1827 65.2968 80.6831 64.7964 80.6831Z" fill="#C42128"/>
</g>
<g id="Group_15">
<path id="Vector_14" d="M94.318 71.6769H82.3093C81.8089 71.6769 81.3086 71.1766 81.3086 70.6762V58.9177C81.3086 58.4173 81.8089 57.917 82.3093 57.917H94.318C94.8183 57.917 95.3187 58.4173 95.3187 58.9177V70.6762C95.3187 71.1766 94.8183 71.6769 94.318 71.6769ZM83.31 69.4253H92.8169V59.9185H83.31V69.4253Z" fill="#C42128"/>
</g>
<g id="Group_16">
<path id="Vector_15" d="M106.077 71.6769H94.0681C93.5677 71.6769 93.0674 71.1766 93.0674 70.6762V58.9177C93.0674 58.4173 93.5677 57.917 94.0681 57.917H106.077C106.577 57.917 107.077 58.4173 107.077 58.9177V70.6762C107.578 71.1766 107.078 71.6769 106.077 71.6769ZM95.319 69.4253H104.826V59.9185H95.319V69.4253Z" fill="#C42128"/>
</g>
<g id="Group_17">
<path id="Vector_16" d="M118.336 71.6769H106.077C105.577 71.6769 105.076 71.1766 105.076 70.6762V58.9177C105.076 58.4173 105.577 57.917 106.077 57.917H118.336C118.836 57.917 119.336 58.4173 119.336 58.9177V70.6762C119.336 71.1766 118.836 71.6769 118.336 71.6769ZM107.578 69.4253H117.335V59.9185H107.578V69.4253Z" fill="#C42128"/>
</g>
<g id="Group_18">
<path id="Vector_17" d="M94.318 83.4347H82.3093C81.8089 83.4347 81.3086 82.9344 81.3086 82.434V70.6755C81.3086 70.1752 81.8089 69.6748 82.3093 69.6748H94.318C94.8183 69.6748 95.3187 70.1752 95.3187 70.6755V82.434C95.3187 82.9344 94.8183 83.4347 94.318 83.4347ZM83.31 81.1831H92.8169V71.6762H83.31V81.1831Z" fill="#C42128"/>
</g>
<g id="Group_19">
<path id="Vector_18" d="M106.077 83.4347H94.0681C93.5677 83.4347 93.0674 82.9344 93.0674 82.434V70.6755C93.0674 70.1752 93.5677 69.6748 94.0681 69.6748H106.077C106.577 69.6748 107.077 70.1752 107.077 70.6755V82.434C107.578 82.9344 107.078 83.4347 106.077 83.4347ZM95.319 81.1831H104.826V71.6762H95.319V81.1831Z" fill="#C42128"/>
</g>
<g id="Group_20">
<path id="Vector_19" d="M118.336 83.4347H106.077C105.577 83.4347 105.076 82.9344 105.076 82.434V70.6755C105.076 70.1752 105.577 69.6748 106.077 69.6748H118.336C118.836 69.6748 119.336 70.1752 119.336 70.6755V82.434C119.336 82.9344 118.836 83.4347 118.336 83.4347ZM107.578 81.1831H117.335V71.6762H107.578V81.1831Z" fill="#C42128"/>
</g>
<g id="Group_21">
<path id="Vector_20" d="M134.597 94.1928H4.75365C4.25329 94.1928 3.75293 93.6925 3.75293 93.1921C3.75293 92.6918 4.25329 92.1914 4.75365 92.1914H134.597C135.098 92.1914 135.598 92.6918 135.598 93.1921C135.598 93.6925 135.348 94.1928 134.597 94.1928Z" fill="#C42128"/>
</g>
<g id="Group_22">
<path id="Vector_21" d="M124.339 98.9467H59.5427C59.0424 98.9467 58.542 98.4464 58.542 97.946C58.542 97.4457 59.0424 96.9453 59.5427 96.9453H124.339C124.84 96.9453 125.34 97.4457 125.34 97.946C125.34 98.4464 124.84 98.9467 124.339 98.9467Z" fill="#C42128"/>
</g>
<g id="Group_23">
<path id="Vector_22" d="M31.7729 98.6968H1.00072C0.50036 98.6968 0 98.1964 0 97.696C0 97.1957 0.50036 96.6953 1.00072 96.6953H31.5227C32.0231 96.6953 32.5235 97.1957 32.5235 97.696C32.5235 98.1964 32.2733 98.6968 31.7729 98.6968Z" fill="#C42128"/>
</g>
<g id="Group_24">
<path id="Vector_23" d="M54.5389 21.1398H39.5281C37.5267 21.1398 35.7754 19.3885 35.7754 17.3871C35.7754 15.6358 36.7761 14.3849 38.5274 13.8845C38.5274 13.134 39.0277 12.3834 39.5281 11.6329C40.0285 11.1325 40.779 10.8824 41.2794 10.6322C41.7797 9.13112 43.2808 8.38059 44.7819 8.38059C45.0321 8.38059 45.5324 8.3806 45.7826 8.63079C46.5332 7.88024 47.5339 7.37988 48.7848 7.37988C50.7862 7.37988 52.5375 8.88094 53.0378 10.6322C55.2895 10.6322 57.2909 12.3835 57.2909 14.8853V15.1354C57.7913 15.886 58.0415 16.6366 58.0415 17.3871C58.2916 19.3885 56.5404 21.1398 54.5389 21.1398ZM42.5303 12.6336C42.0299 12.6336 41.7797 12.8838 41.5295 13.134C41.2794 13.3842 41.0292 13.8845 41.0292 14.1347V14.3849C41.0292 14.6351 41.0292 15.1354 40.779 15.3856C40.5288 15.6358 40.2786 15.886 40.0285 15.886C39.2779 15.886 38.5274 16.6366 38.5274 17.3871C38.5274 18.1376 39.2779 18.8881 40.0285 18.8881H55.0393C55.7898 18.8881 56.5404 18.1376 56.5404 17.3871C56.5404 16.8867 56.2902 16.6365 56.04 16.3863C55.7898 16.1361 55.5396 15.6358 55.7898 15.3856C55.7898 15.3856 55.7898 15.1355 55.7898 14.8853C55.7898 13.8846 54.7891 12.8838 53.7884 12.8838C53.5382 12.8838 53.288 12.8838 53.0378 13.134C52.7877 13.3842 52.2873 13.134 52.0371 12.8838C51.7869 12.6336 51.5368 12.1333 51.5368 11.8831C51.5368 11.6329 51.5368 11.6329 51.5368 11.6329C51.5368 10.6322 50.536 9.63149 49.5353 9.63149C48.7848 9.63149 48.2844 9.88166 47.7841 10.6322C47.5339 11.1326 46.7833 11.3828 46.283 10.8824C46.0328 10.6322 45.7826 10.6322 45.5324 10.6322C44.7819 10.6322 44.2815 11.1326 44.0313 11.8831C43.531 12.3835 43.0306 12.6336 42.5303 12.6336Z" fill="#C42128"/>
</g>
</g>
</g>
</svg>
