<svg xmlns="http://www.w3.org/2000/svg" viewBox="0 0 493.61 332.41"><defs><style>.cls-1{fill:#455a64;}.cls-2{opacity:0.3;}.cls-3{fill:#263238;}.cls-4{fill:#ebebeb;}.cls-5{fill:#e0e0e0;}.cls-6{fill:#fff;}.cls-7{opacity:0.5;}.cls-8{fill:#f5f5f5;}.cls-9{fill:#c42128;}.cls-10{fill:#fafafa;}.cls-11{opacity:0.2;}.cls-12{fill:#ff725e;}.cls-13,.cls-18{fill:#f4d1d2;}.cls-13,.cls-14,.cls-16{fill-rule:evenodd;}.cls-14,.cls-15{fill:#f3f3f3;}.cls-16,.cls-17{fill:#ffb1b5;}.cls-19{fill:#837155;}.cls-20{fill:#e6275c;}</style></defs><g id="Layer_2" data-name="Layer 2"><g id="Layer_1-2" data-name="Layer 1"><path class="cls-1" d="M180,264h52.92a2.45,2.45,0,0,0,2.47-2.47V222.33a2.45,2.45,0,0,0-2.47-2.48H180a2.46,2.46,0,0,0-2.48,2.48v39.16A2.52,2.52,0,0,0,180,264Z"/><g class="cls-2"><path d="M235.42,249.18h-21.1a1.46,1.46,0,0,1-1.46-1.45h22.49Z"/></g><path class="cls-1" d="M213.81,248h21.32a1.8,1.8,0,0,0,1.82-1.82v-9.54a1.8,1.8,0,0,0-1.82-1.82H213.81a1.8,1.8,0,0,0-1.82,1.82v9.54A1.85,1.85,0,0,0,213.81,248Z"/><path class="cls-3" d="M213.81,248a2.51,2.51,0,0,1-.73-.15,2.16,2.16,0,0,1-.73-.51,1.76,1.76,0,0,1-.36-1.09v-9.75a.83.83,0,0,1,.22-.59,1.89,1.89,0,0,1,1-.8,2.12,2.12,0,0,1,.66-.07h21.18a1.61,1.61,0,0,1,1.46.87,1.53,1.53,0,0,1,.21.81v9.75a1.91,1.91,0,0,1-.8,1.31,2,2,0,0,1-.72.29H213.88c0-.14-.07-.07-.07-.07h21.54a1.58,1.58,0,0,0,.8-.29,2,2,0,0,0,.88-1.46v-9.75a1.61,1.61,0,0,0-.3-.95,2,2,0,0,0-1.67-.95H213.88a2.28,2.28,0,0,0-.73.08,2.15,2.15,0,0,0-1.09.87,1.16,1.16,0,0,0-.22.66v9.75a1.9,1.9,0,0,0,.44,1.17,1.46,1.46,0,0,0,.73.5,2.26,2.26,0,0,0,.51.15C213.73,248,213.81,248,213.81,248Z"/><g class="cls-2"><path d="M214.39,242.78a3.71,3.71,0,1,0,3.71-3.71A3.72,3.72,0,0,0,214.39,242.78Z"/></g><path class="cls-4" d="M218.1,245.18a3.71,3.71,0,1,0-3.71-3.71A3.71,3.71,0,0,0,218.1,245.18Z"/><path class="cls-3" d="M214.39,241.47a3.57,3.57,0,0,1,.14-.87,3.28,3.28,0,0,1,1.39-2,3.66,3.66,0,0,1,1.53-.66,4.28,4.28,0,0,1,1.89.15,6.2,6.2,0,0,1,.94.51,1.88,1.88,0,0,1,.73.8,3.66,3.66,0,0,1,.73,2.11,3.5,3.5,0,0,1-.73,2.11,8.28,8.28,0,0,1-.73.8,3.69,3.69,0,0,1-.94.51,3.46,3.46,0,0,1-1.89.15,3.53,3.53,0,0,1-1.53-.66,4.27,4.27,0,0,1-1.39-2c-.14-.73-.07-1-.14-1a2.42,2.42,0,0,0,.07.94,4.33,4.33,0,0,0,1.31,2.12,4.63,4.63,0,0,0,1.6.72,3.63,3.63,0,0,0,2-.14,4,4,0,0,0,.94-.51,4.09,4.09,0,0,0,.81-.8,4,4,0,0,0,.72-2.26,4.23,4.23,0,0,0-.72-2.26,4.09,4.09,0,0,0-.81-.8,7.24,7.24,0,0,0-.94-.51,3.73,3.73,0,0,0-2-.14,3.53,3.53,0,0,0-1.6.73,3.26,3.26,0,0,0-1.31,2.11A5.58,5.58,0,0,0,214.39,241.47Z"/><path class="cls-5" d="M487,170.2,329.82,186.69a7.43,7.43,0,0,1-8.13-6.53L311.5,83.06A7.42,7.42,0,0,1,318,74.93L475.24,58.44A7.42,7.42,0,0,1,483.37,65l10.2,97.1A7.43,7.43,0,0,1,487,170.2Z"/><path class="cls-6" d="M333.49,145.58l1,9.51-1,.11-.92-8.7-2.29.23-.11-.92Z"/><path class="cls-6" d="M344.14,153.14l.11.92-6.64.68-.12-.68L341,149.7c.92-1.14,1.15-1.83,1-2.52-.11-1.14-.91-1.71-2.4-1.6a3.32,3.32,0,0,0-2.52,1.38l-.8-.58a4.46,4.46,0,0,1,3.2-1.71c1.95-.23,3.33.68,3.44,2.29.11.91-.11,1.71-1.26,3.2l-2.86,3.55Z"/><path class="cls-6" d="M354,150.51l-1.94.22.23,2.52-1,.12-.22-2.52-5.39.57-.11-.69,4.35-6.87,1.15-.11-4.24,6.64,4.12-.46-.23-2.17.92-.12.23,2.18,1.94-.23Z"/><path class="cls-6" d="M368.64,148.9l-1.95.23.23,2.52-1,.12-.23-2.52-5.38.57-.11-.69,4.35-6.87,1.14-.11-4.23,6.64,4.12-.46-.23-2.17.91-.12.23,2.18,2-.23Z"/><path class="cls-6" d="M377,147.76c.11,1.6-.8,3-3.21,3.2a5,5,0,0,1-3.55-.91l.35-.8a4.34,4.34,0,0,0,3.09.8c1.6-.12,2.4-1,2.29-2.18s-.92-2-3.44-1.6l-2.06.23v-4.81l5.27-.57.11.91-4.35.46v3.09l1.26-.11C375.63,145.12,376.77,146,377,147.76Z"/><path class="cls-6" d="M386.39,146.73c.23,1.83-1.15,3.09-3,3.32-2.52.23-4.12-1.38-4.46-4.35-.35-3.21,1.26-5.16,3.89-5.38a4.76,4.76,0,0,1,2.29.22l-.35.8a3.54,3.54,0,0,0-1.94-.22c-2.06.22-3.21,1.71-3,4.23,0,.23.12.46.12.8a2.88,2.88,0,0,1,2.74-1.94C384.78,144,386.16,145,386.39,146.73Zm-.92.11c-.11-1.26-1.14-1.94-2.63-1.83a2.21,2.21,0,0,0-2.29,2.29c.11,1,1,1.95,2.75,1.83A2.12,2.12,0,0,0,385.47,146.84Z"/><path class="cls-6" d="M399.44,145.47c.12,1.6-.91,3-3.2,3.2a5,5,0,0,1-3.55-.91l.34-.8a4.36,4.36,0,0,0,3.09.8c1.6-.12,2.41-1,2.29-2.18s-1-1.83-2.75-1.6l-.68.11-.12-.68,2.29-3.55-4.92.46-.12-.92,6.19-.69.11.69-2.29,3.66C398.18,143,399.33,144,399.44,145.47Z"/><path class="cls-6" d="M409.06,144.44c.23,1.83-1.15,3.09-3,3.32-2.52.23-4.12-1.38-4.46-4.35-.35-3.21,1.26-5.16,3.89-5.38a4.76,4.76,0,0,1,2.29.22l-.34.8a3.58,3.58,0,0,0-1.95-.22c-2.06.22-3.21,1.71-3,4.23,0,.23.12.46.12.8a2.88,2.88,0,0,1,2.75-1.94C407.34,141.69,408.83,142.6,409.06,144.44Zm-1,.11c-.12-1.26-1.14-2-2.63-1.83a2.21,2.21,0,0,0-2.29,2.29c.11,1,1,2,2.74,1.83A2.07,2.07,0,0,0,408,144.55Z"/><path class="cls-6" d="M417.08,136.77l.11.68-3.09,9.28-1,.11,3-9-4.92.45.23,1.84-.92.11-.22-2.63Z"/><path class="cls-6" d="M430.7,135.39l.12.69-3.1,9.27-1,.12,3-9.05-4.92.46.23,1.83-.92.12-.23-2.64Z"/><path class="cls-6" d="M440.89,141.23c.23,1.72-1.14,2.86-3.43,3.09s-3.78-.68-4-2.4a2.35,2.35,0,0,1,1.6-2.52,2.07,2.07,0,0,1-1.71-2c-.12-1.6,1-2.63,3.09-2.86s3.43.57,3.66,2.18a2.21,2.21,0,0,1-1.26,2.28A2.55,2.55,0,0,1,440.89,141.23Zm-1,.11c-.11-1.14-1.26-1.83-2.86-1.6s-2.63,1-2.52,2.18,1.15,1.83,2.86,1.6S440,142.49,439.86,141.34Zm-3-2.4c1.48-.11,2.28-.91,2.17-1.95s-1.14-1.6-2.52-1.48-2.29.91-2.17,1.94S435.4,139.05,436.89,138.94Z"/><path class="cls-6" d="M449.82,138c.35,3.2-1.26,5.15-3.89,5.38a4.77,4.77,0,0,1-2.29-.23l.34-.8a3.59,3.59,0,0,0,1.95.22c2.06-.22,3.21-1.71,3-4.23,0-.23-.12-.46-.12-.8a2.88,2.88,0,0,1-2.75,1.94A2.92,2.92,0,0,1,442.5,137c-.23-1.83,1.14-3.09,3-3.32C448,133.45,449.59,135.05,449.82,138Zm-1.48-1.72c-.12-1-1-1.95-2.75-1.84-1.38.12-2.29,1-2.06,2.3s1.14,1.94,2.63,1.83A2.2,2.2,0,0,0,448.34,136.31Z"/><path class="cls-6" d="M459.1,132.41l1,9.51-1,.11-.92-8.7-2.29.23-.11-.92Z"/><path class="cls-6" d="M469.75,140l.11.92-6.64.68-.11-.68,3.55-4.35c.91-1.15,1.14-1.84,1-2.52-.12-1.15-.92-1.72-2.41-1.61a3.34,3.34,0,0,0-2.52,1.38l-.8-.57a4.44,4.44,0,0,1,3.21-1.72c1.94-.23,3.32.68,3.43,2.29.12.91-.11,1.72-1.26,3.2l-2.86,3.55Z"/><path class="cls-6" d="M478.11,137.22c.11,1.61-.92,3-3.21,3.21a5,5,0,0,1-3.55-.92l.35-.8a4.3,4.3,0,0,0,3.09.8c1.6-.11,2.4-1,2.29-2.17s-1-1.83-2.75-1.61l-.69.12-.11-.69,2.29-3.55-4.93.46-.11-.92,6.18-.68.12.68-2.29,3.67C476.85,134.7,478,135.73,478.11,137.22Z"/><path class="cls-6" d="M482.3,146.74l-76.42,8,.43,4.1,76.42-8Z"/><path class="cls-6" d="M483.2,155,444,159.09l.43,4.1,39.18-4.11Z"/><g class="cls-7"><path class="cls-8" d="M353.18,135.16l-20.72,2.18a5.75,5.75,0,0,1-6.3-5l-1.38-12.71a5.77,5.77,0,0,1,5-6.3l20.73-2.17a5.75,5.75,0,0,1,6.3,5l1.37,12.59A5.73,5.73,0,0,1,353.18,135.16Z"/></g><path class="cls-5" d="M326,131.27l-.11-1.49,16.49-1.72a3.45,3.45,0,1,0-.69-6.87l-16.49,1.72-.11-1.49,16.49-1.72a5,5,0,0,1,1,10Z"/><path class="cls-5" d="M357.56,122.23l-11.39,1.19.15,1.48,11.39-1.18Z"/><path class="cls-6" d="M408.48,85.18,326,93.81l.74,7.06,82.45-8.63Z"/><path class="cls-6" d="M465.17,91.19l-9.39,1a3.69,3.69,0,0,1-4-3.2l-1-9.39a3.69,3.69,0,0,1,3.21-4l9.39-1a3.68,3.68,0,0,1,4,3.2l1,9.39A3.55,3.55,0,0,1,465.17,91.19Z"/><path class="cls-9" d="M156.08,208.49l-8-10.65L206,154l47.49,28.82,56.42-54L380,169.19l64.66-48.78,8.09,10.7L381,185.19l-69.13-39.8-56.58,54.18-48.5-29.43Z"/><path class="cls-9" d="M456.11,142.21l7.64-30L433.7,116Z"/><g class="cls-2"><path d="M440.28,123.64,449,133.9l-4.74,3.57-8.86-10Z"/></g><path class="cls-3" d="M359.62,308.59l-96.46-.51a21,21,0,0,1-20.91-21.17l1-241.95a20.9,20.9,0,0,1,21.16-20.91l96.45.5A21,21,0,0,1,381.8,45.72l-1,242A21,21,0,0,1,359.62,308.59Z"/><path class="cls-10" d="M360.76,33.05,342,32.92l-54.63-.25h-6.59l-16.35-.13a14.82,14.82,0,0,0-14.83,14.7l-1,236.13a14.82,14.82,0,0,0,14.7,14.83l96.33.5A14.82,14.82,0,0,0,374.45,284l1-236.12A14.74,14.74,0,0,0,360.76,33.05Z"/><path class="cls-3" d="M361.39,54.47a1.21,1.21,0,1,1-1.14-1.27A1.34,1.34,0,0,1,361.39,54.47Z"/><path class="cls-3" d="M361.39,58.77a1.21,1.21,0,1,1-1.14-1.26A1.33,1.33,0,0,1,361.39,58.77Z"/><path class="cls-3" d="M361.39,63.21a1.21,1.21,0,1,1-1.14-1.27A1.16,1.16,0,0,1,361.39,63.21Z"/><path class="cls-4" d="M363.29,160.8H271.53a5.41,5.41,0,0,1-5.45-5.45V101.11a5.41,5.41,0,0,1,5.45-5.45h91.76a5.41,5.41,0,0,1,5.45,5.45v54.24A5.49,5.49,0,0,1,363.29,160.8Z"/><path class="cls-5" d="M360.5,156.49H268.74a5.41,5.41,0,0,1-5.45-5.45V96.8a5.41,5.41,0,0,1,5.45-5.45H360.5A5.41,5.41,0,0,1,366,96.8V151A5.48,5.48,0,0,1,360.5,156.49Z"/><path class="cls-1" d="M357.21,153.07H265.45a5.41,5.41,0,0,1-5.45-5.45V93.38a5.4,5.4,0,0,1,5.45-5.45h91.76a5.41,5.41,0,0,1,5.45,5.45v54.24A5.49,5.49,0,0,1,357.21,153.07Z"/><path class="cls-6" d="M276.85,102.75c0,.89-.63,1.27-1.9,1.27h-2.53V99.21h2.41c1.26,0,1.77.5,1.77,1.26a1,1,0,0,1-.63,1A1.21,1.21,0,0,1,276.85,102.75Zm-3.29-2.66v1.14h1.14c.51,0,.89-.25.89-.63s-.26-.51-.89-.51Zm2.28,2.54c0-.38-.25-.64-.89-.64h-1.27v1.15H275C275.46,103.26,275.84,103,275.84,102.63Z"/><path class="cls-6" d="M280.91,103h-2.28l-.38,1h-1.14l2.15-4.81h1.14l2.16,4.81h-1.15Zm-.38-.76-.76-1.9-.76,1.9Z"/><path class="cls-6" d="M287.5,99.21V104h-.89l-2.53-2.91V104h-1.14V99.21h.88l2.41,2.91V99.21Z"/><path class="cls-6" d="M290.29,102.25l-.64.63v1.27h-1.14V99.33h1.14v2.28l2.16-2.28h1.27l-2,2.16,2.15,2.66h-1.27Z"/><path class="cls-6" d="M276,122.78h-.89v1.14h-.51v-1.14H272v-.38l2.28-2.91h.51l-2.29,2.91h1.9v-1h.39v1h.88v.38Z"/><path class="cls-6" d="M279.26,122.65c0,.76-.51,1.27-1.65,1.27a3.09,3.09,0,0,1-1.64-.51l.25-.38a2,2,0,0,0,1.39.51c.76,0,1.14-.38,1.14-.89s-.38-.88-1.14-.88h-.25v-.38l1.27-1.52h-2.28v-.38h2.78v.38l-1.26,1.52C278.75,121.51,279.26,122,279.26,122.65Z"/><path class="cls-6" d="M282.81,122.65c0,.76-.51,1.4-1.65,1.4a3.22,3.22,0,0,1-1.65-.51l.26-.38a2,2,0,0,0,1.39.51c.76,0,1.14-.38,1.14-.89s-.38-.89-1.52-.89h-.89l.26-2.28h2.41V120h-2l-.13,1.4h.51C282.3,121.39,282.81,121.89,282.81,122.65Z"/><path class="cls-6" d="M286.74,122.65a1.37,1.37,0,0,1-1.52,1.4c-1.14,0-1.78-.76-1.78-2.16s.76-2.28,2-2.28a2.31,2.31,0,0,1,1,.26l-.12.38a1.83,1.83,0,0,0-.89-.26c-1,0-1.52.64-1.52,1.78v.38a1.44,1.44,0,0,1,1.39-.76A1.23,1.23,0,0,1,286.74,122.65Zm-.51,0c0-.63-.38-1-1.14-1a1,1,0,0,0-1.14,1c0,.51.38.89,1.14.89S286.23,123.29,286.23,122.65Z"/><path class="cls-6" d="M296.24,123.92l-1-1.39-1,1.39h-.51l1.27-1.65-1.27-1.64h.51l1,1.26,1-1.26h.51l-1.27,1.64,1.27,1.65Z"/><path class="cls-6" d="M299.67,123.92l-1-1.39-1,1.39h-.51l1.27-1.65-1.27-1.64h.51l1,1.26,1-1.26h.5l-1.26,1.64,1.26,1.65Z"/><path class="cls-6" d="M303.09,123.92l-1-1.39-1.14,1.39h-.5l1.26-1.65-1.26-1.64h.5l1,1.26,1-1.26h.51l-1.27,1.64,1.27,1.65Z"/><path class="cls-6" d="M306.38,123.92l-1-1.39-1,1.39h-.51l1.27-1.65-1.27-1.64h.51l1,1.26,1-1.26h.51l-1.27,1.64,1.27,1.65Z"/><path class="cls-6" d="M318,123.92l-1-1.39-1,1.39h-.51l1.27-1.65-1.27-1.64H316l1,1.26,1-1.26h.51l-1.27,1.64,1.27,1.65Z"/><path class="cls-6" d="M321.47,123.92l-1-1.39-1,1.39h-.51l1.27-1.65-1.27-1.64h.51l1,1.26,1-1.26h.5l-1.26,1.64,1.26,1.65Z"/><path class="cls-6" d="M324.76,123.92l-1-1.39-1,1.39h-.5l1.26-1.65-1.26-1.64h.5l1,1.26,1-1.26h.51L324,122.27l1.27,1.65Z"/><path class="cls-6" d="M328.18,123.92l-1-1.39-1,1.39h-.51l1.27-1.65-1.27-1.64h.51l1,1.26,1-1.26h.51l-1.27,1.64,1.27,1.65Z"/><path class="cls-6" d="M338.7,119.49v4.43h-.5v-4h-1v-.38Z"/><path class="cls-6" d="M342.63,122.65c0,.76-.5,1.27-1.65,1.27a3.09,3.09,0,0,1-1.64-.51l.25-.38a2,2,0,0,0,1.39.51c.77,0,1.15-.38,1.15-.89s-.38-.88-1.15-.88h-.25v-.38l1.27-1.52h-2.28v-.38h2.79v.38l-1.27,1.52C342.13,121.51,342.63,122,342.63,122.65Z"/><path class="cls-6" d="M347.07,122.78h-.89v1.14h-.51v-1.14h-2.53v-.38l2.28-2.91h.51l-2.28,2.91h1.9v-1h.38v1h.89v.38Z"/><path class="cls-6" d="M350.49,123.54v.38h-3v-.38l1.9-1.77c.51-.51.63-.76.63-1.14a.9.9,0,0,0-1-.89,1.62,1.62,0,0,0-1.27.5l-.38-.25a2.1,2.1,0,0,1,1.52-.63c.89,0,1.52.5,1.52,1.14,0,.38-.12.76-.76,1.39l-1.52,1.52h2.41Z"/><path class="cls-6" d="M269.88,133.17A1.14,1.14,0,0,1,271,132a1.16,1.16,0,0,1,.89.38l-.25.26a1,1,0,0,0-.51-.26.6.6,0,0,0-.63.64.59.59,0,0,0,.63.63.7.7,0,0,0,.51-.25l.25.25a1.16,1.16,0,0,1-.89.38A.89.89,0,0,1,269.88,133.17Z"/><path class="cls-6" d="M273.56,133.81h-1l-.12.5h-.51l.89-2.15h.5l.89,2.15h-.51Zm-.13-.38-.38-.76-.38.76Z"/><path class="cls-6" d="M275.84,134.19l-.38-.64h-.38v.64h-.51V132h.89c.51,0,.89.26.89.76a.71.71,0,0,1-.38.64l.5.63h-.63Zm-.38-1.65h-.38v.76h.38c.25,0,.51-.13.51-.38S275.71,132.54,275.46,132.54Z"/><path class="cls-6" d="M276.6,133.93l.13-.38a.94.94,0,0,0,.63.26c.25,0,.38-.13.38-.26,0-.38-1.27-.12-1.27-.88,0-.38.26-.64.89-.64.25,0,.51.13.76.13l-.13.38a1.11,1.11,0,0,0-.63-.13c-.25,0-.38.13-.38.26,0,.38,1.27.12,1.27.88,0,.38-.26.64-.89.64C277.11,134.19,276.73,134.19,276.6,133.93Z"/><path class="cls-6" d="M281.42,132v2.16h-.51v-.89h-1v.89h-.51V132h.51v.89h1V132Z"/><path class="cls-6" d="M281.8,133.17a1.14,1.14,0,1,1,1.14,1.14C282.3,134.19,281.8,133.81,281.8,133.17Zm1.9,0a.6.6,0,0,0-.64-.63.59.59,0,0,0-.63.63.6.6,0,0,0,.63.64A.69.69,0,0,0,283.7,133.17Z"/><path class="cls-6" d="M284.46,132h.5v1.78h1v.38h-1.52Z"/><path class="cls-6" d="M286.36,132h1a1,1,0,1,1,0,2h-1Zm.89,1.78a.6.6,0,0,0,.63-.64.59.59,0,0,0-.63-.63h-.51v1.27Z"/><path class="cls-6" d="M290.41,133.81v.38h-1.64V132h1.64v.38h-1.14v.51h1v.38h-1v.51Z"/><path class="cls-6" d="M292.19,134.19l-.38-.64h-.38v.64h-.64V132h.89c.51,0,.89.26.89.76a.71.71,0,0,1-.38.64l.51.63h-.51Zm-.51-1.65h-.38v.76h.38c.25,0,.51-.13.51-.38S292.06,132.54,291.68,132.54Z"/><path class="cls-6" d="M299.41,142.17H270.64a1.26,1.26,0,0,1-1.26-1.26v-.26a1.27,1.27,0,0,1,1.26-1.27h28.77a1.27,1.27,0,0,1,1.27,1.27v.26A1.27,1.27,0,0,1,299.41,142.17Z"/><path class="cls-6" d="M351.25,142.17H336.3a1.26,1.26,0,0,1-1.27-1.26v-.26a1.27,1.27,0,0,1,1.27-1.27h14.95a1.27,1.27,0,0,1,1.27,1.27v.26A1.36,1.36,0,0,1,351.25,142.17Z"/><g class="cls-11"><path class="cls-6" d="M359.24,87.93H263.42A3.41,3.41,0,0,0,260,91.35v17.24c6.08,4.18,14.32,4.94,21.8,3.42,8.74-1.78,16.6-6.21,24.71-9.89s17-6.59,25.73-5.07c8.24,1.4,15.34,6.59,22.81,10.4a41.41,41.41,0,0,0,7.73,3V91.35A3.59,3.59,0,0,0,359.24,87.93Z"/></g><path class="cls-1" d="M277.61,205h-4.43A11.09,11.09,0,0,1,262,193.89v-4.44a11.09,11.09,0,0,1,11.16-11.15h4.43a11.09,11.09,0,0,1,11.16,11.15v4.44A11.09,11.09,0,0,1,277.61,205Z"/><path class="cls-6" d="M278.12,195.79h-5.83c-.13,0-.25-.13-.38-.26l-2.15-8.62h-2a.33.33,0,0,1-.38-.38.33.33,0,0,1,.38-.38H270c.13,0,.25.13.38.26l2.15,8.62h5.58a.33.33,0,0,1,.38.38A.4.4,0,0,1,278.12,195.79Z"/><path class="cls-12" d="M273.43,198.58a1.15,1.15,0,1,0-1.14-1.15A1.15,1.15,0,0,0,273.43,198.58Z"/><path class="cls-6" d="M273.43,198.83a1.4,1.4,0,1,1,1.4-1.4A1.41,1.41,0,0,1,273.43,198.83Zm0-2.16a.76.76,0,1,0,.76.76A.82.82,0,0,0,273.43,196.67Z"/><path class="cls-12" d="M279.39,198.58a1.15,1.15,0,1,0-1.14-1.15A1.15,1.15,0,0,0,279.39,198.58Z"/><path class="cls-6" d="M279.39,198.83a1.4,1.4,0,1,1,0-2.79,1.4,1.4,0,0,1,1.39,1.39A1.26,1.26,0,0,1,279.39,198.83Zm0-2.16a.76.76,0,1,0,.76.76A.73.73,0,0,0,279.39,196.67Z"/><path class="cls-6" d="M280.4,194.27h-8.24a.41.41,0,0,1-.38-.38.33.33,0,0,1,.38-.38h8l.88-5.07H270.52a.39.39,0,0,1,0-.77h10.77c.13,0,.25,0,.25.13s.13.13.13.25l-1,5.84C280.66,194.14,280.53,194.27,280.4,194.27Z"/><path class="cls-5" d="M348.72,189.45H300.55a2.87,2.87,0,0,1-2.91-2.92V186a2.87,2.87,0,0,1,2.91-2.92h48.17a2.87,2.87,0,0,1,2.91,2.92v.5A2.8,2.8,0,0,1,348.72,189.45Z"/><path class="cls-5" d="M322,202.12H300.55a2.86,2.86,0,0,1-2.91-2.91v-.51a2.86,2.86,0,0,1,2.91-2.91H322a2.87,2.87,0,0,1,2.92,2.91v.51A2.79,2.79,0,0,1,322,202.12Z"/><path class="cls-1" d="M277.61,244.46h-4.43A11.1,11.1,0,0,1,262,233.3v-4.43a11.1,11.1,0,0,1,11.16-11.16h4.43a11.1,11.1,0,0,1,11.16,11.16v4.43A11.1,11.1,0,0,1,277.61,244.46Z"/><path class="cls-6" d="M278.12,235.2h-5.83c-.13,0-.25-.12-.38-.25l-2.15-8.62h-2a.38.38,0,1,1,0-.76H270c.13,0,.25.13.38.25l2.15,8.62h5.58a.34.34,0,0,1,.38.38A.4.4,0,0,1,278.12,235.2Z"/><path class="cls-12" d="M273.43,238a1.14,1.14,0,1,0-1.14-1.14A1.14,1.14,0,0,0,273.43,238Z"/><path class="cls-6" d="M273.43,238.24a1.39,1.39,0,1,1,1.4-1.39A1.4,1.4,0,0,1,273.43,238.24Zm0-2.15a.76.76,0,1,0,.76.76A.82.82,0,0,0,273.43,236.09Z"/><path class="cls-12" d="M279.39,238a1.14,1.14,0,1,0-1.14-1.14A1.14,1.14,0,0,0,279.39,238Z"/><path class="cls-6" d="M279.39,238.24a1.39,1.39,0,1,1,1.39-1.39A1.26,1.26,0,0,1,279.39,238.24Zm0-2.15a.76.76,0,1,0,.76.76A.73.73,0,0,0,279.39,236.09Z"/><path class="cls-6" d="M280.4,233.56h-8.24a.41.41,0,0,1-.38-.38.33.33,0,0,1,.38-.38h8l.88-5.2H270.52a.4.4,0,0,1-.38-.38.4.4,0,0,1,.38-.38h10.77c.13,0,.25,0,.25.13s.13.12.13.25l-1,5.83C280.66,233.56,280.53,233.56,280.4,233.56Z"/><path class="cls-5" d="M348.72,228.86H300.55a2.86,2.86,0,0,1-2.91-2.91v-.51a2.87,2.87,0,0,1,2.91-2.91h48.17a2.87,2.87,0,0,1,2.91,2.91V226A2.79,2.79,0,0,1,348.72,228.86Z"/><path class="cls-5" d="M322,241.54H300.55a2.87,2.87,0,0,1-2.91-2.91v-.51a2.87,2.87,0,0,1,2.91-2.92H322a2.87,2.87,0,0,1,2.92,2.92v.51A2.8,2.8,0,0,1,322,241.54Z"/><path class="cls-1" d="M277.61,283.87h-4.43A11.09,11.09,0,0,1,262,272.72v-4.44a11.09,11.09,0,0,1,11.16-11.15h4.43a11.09,11.09,0,0,1,11.16,11.15v4.44A11.09,11.09,0,0,1,277.61,283.87Z"/><path class="cls-6" d="M278.12,274.62h-5.83c-.13,0-.25-.13-.38-.25l-2.15-8.62h-2a.33.33,0,0,1-.38-.38.4.4,0,0,1,.38-.38H270c.13,0,.25.13.38.25l2.15,8.62h5.58a.34.34,0,0,1,.38.38A.4.4,0,0,1,278.12,274.62Z"/><path class="cls-12" d="M273.43,277.41a1.14,1.14,0,1,0-1.14-1.14A1.14,1.14,0,0,0,273.43,277.41Z"/><path class="cls-6" d="M273.43,277.66a1.39,1.39,0,1,1,1.4-1.39A1.4,1.4,0,0,1,273.43,277.66Zm0-2.15a.76.76,0,1,0,.76.76A.82.82,0,0,0,273.43,275.51Z"/><path class="cls-12" d="M279.39,277.41a1.14,1.14,0,1,0-1.14-1.14A1.14,1.14,0,0,0,279.39,277.41Z"/><path class="cls-6" d="M279.39,277.66a1.39,1.39,0,1,1,1.39-1.39A1.32,1.32,0,0,1,279.39,277.66Zm0-2.15a.76.76,0,1,0,.76.76A.73.73,0,0,0,279.39,275.51Z"/><path class="cls-6" d="M280.4,273h-8.24a.4.4,0,0,1-.38-.38.41.41,0,0,1,.38-.38h8L281,267H270.52a.4.4,0,0,1-.38-.38.4.4,0,0,1,.38-.38h10.77c.13,0,.25,0,.25.12s.13.13.13.26l-1,5.83C280.66,272.85,280.53,273,280.4,273Z"/><path class="cls-5" d="M348.72,268.28H300.55a2.86,2.86,0,0,1-2.91-2.91v-.51a2.87,2.87,0,0,1,2.91-2.91h48.17a2.87,2.87,0,0,1,2.91,2.91v.51A2.79,2.79,0,0,1,348.72,268.28Z"/><path class="cls-5" d="M322,281H300.55a2.87,2.87,0,0,1-2.91-2.92v-.5a2.87,2.87,0,0,1,2.91-2.92H322a2.87,2.87,0,0,1,2.92,2.92v.5A2.8,2.8,0,0,1,322,281Z"/><path class="cls-5" d="M374.19,168.41c0,.13-28.14.13-62.86.13s-62.87-.13-62.87-.13,28.14-.13,62.87-.13S374.19,168.28,374.19,168.41Z"/><path class="cls-1" d="M263.8,66.13a5.33,5.33,0,1,0-5.33-5.33A5.33,5.33,0,0,0,263.8,66.13Z"/><path class="cls-5" d="M329.07,62.7H293.58a2.21,2.21,0,0,1-2.15-2.15v-.38A2.22,2.22,0,0,1,293.58,58h35.49a2.23,2.23,0,0,1,2.16,2.16v.38A2.14,2.14,0,0,1,329.07,62.7Z"/><path class="cls-13" d="M264.2,279.48v30.38h6v3.78h-145v-3.78h8.56V280.14l-13.6-.07,43.32-30.45,8.69,6h61.37l36.62,23.22h-6Z"/><path class="cls-14" d="M123.28,280.07l3.65-2.45L163.55,253l14.2,9.55-1.66,1.13-12.54-8.43-35.62,23.95-1.26.86Z"/><path class="cls-14" d="M155.92,280.34,180.21,264l24.21,16.32-1.06,1.52-23.15-15.59L157,281.86Z"/><path class="cls-15" d="M270.23,278.68H201.57v1.86h68.66Z"/><path class="cls-15" d="M228.3,289.43h-5v16.19h5Z"/><path class="cls-15" d="M210.79,289.43h-5v16.19h5Z"/><path class="cls-15" d="M249.73,289.43h-9.82v16.19h9.82Z"/><path class="cls-13" d="M249.8,295.27h-4.58v4.57h4.58v.8h-4.58v5h-.8v-5h-4.51v-.8h4.51v-4.57h-4.51v-.8h4.51v-5h.8v5h4.58Z"/><path class="cls-15" d="M256.1,289.43h-5v16.19h5Z"/><path class="cls-15" d="M238.59,289.43h-5v16.19h5Z"/><path class="cls-15" d="M186.57,283.13h-12.8v26.73h12.8Z"/><path class="cls-13" d="M175.23,284.65h4.31v3.72h-4.31Zm5.57,5.11h4.31v3.71H180.8Zm-5.57,0h4.31v3.71h-4.31Zm5.57-5.11h4.31v3.72H180.8Z"/><path class="cls-15" d="M155.92,284.92h-9.81V301.1h9.81Z"/><path class="cls-13" d="M151.41,284.92v5h4.51v.73h-4.51v4.64h4.51v.73h-4.51v5h-.79v-5h-4.51v-.73h4.51v-4.64h-4.51V290h4.51v-5Z"/><path class="cls-6" d="M166,262.89h-7.23v7.23H166Z"/><path class="cls-13" d="M166,266.87h-3.25v3.19H162v-3.19h-3.25v-.79H162v-3.19h.73v3.19H166Z"/><path class="cls-15" d="M222,289.43h-9.82v16.19H222Z"/><path class="cls-13" d="M222,295.27h-4.58v4.57H222v.8h-4.58v5h-.73v-5h-4.51v-.8h4.51v-4.57h-4.51v-.8h4.51v-5h.73v5H222Z"/><path class="cls-16" d="M213.42,328.19h4.52V296.67h-5l14.58-25.89H249.9l17.39-16.58,17.31,16.58H307l14.58,25.89h-5v31.52h4.51v4.22H213.42Z"/><path class="cls-14" d="M218.09,287.5h20.12l28.93-27.6,28.93,27.6h20.42l1.19,2.14H295.11l-.22-.29-27.75-26.57-27.67,26.86H216.9Z"/><path class="cls-15" d="M239.62,303.26h-11v18.05h11Z"/><path class="cls-17" d="M235,303.26h-1.71v18.05H235Z"/><path class="cls-17" d="M239.62,308.88h-11v.82h11Z"/><path class="cls-17" d="M239.62,314.87h-11v.82h11Z"/><path class="cls-15" d="M306.21,303.26H295.26v18.05h10.95Z"/><path class="cls-17" d="M301.62,303.26h-1.7v18.05h1.7Z"/><path class="cls-17" d="M306.21,308.88H295.26v.82h10.95Z"/><path class="cls-17" d="M306.21,314.87H295.26v.82h10.95Z"/><path class="cls-15" d="M275.5,277.21H259v12.21h16.5Z"/><path class="cls-17" d="M268.33,277.21h-2.08v12.21h2.08Z"/><path class="cls-17" d="M263,277.21h-.82v12.21H263Z"/><path class="cls-17" d="M272.17,277.21h-.81v12.21h.81Z"/><path class="cls-17" d="M275.5,282.91H259v.81h16.5Z"/><path class="cls-15" d="M274.39,303.26H260.11v24.93h14.28Z"/><path class="cls-17" d="M266.55,305h-4.81v4.15h4.81Z"/><path class="cls-17" d="M272.84,305H268v4.15h4.81Z"/><path class="cls-17" d="M266.55,310.73h-4.81v4.14h4.81Z"/><path class="cls-17" d="M272.84,310.73H268v4.14h4.81Z"/><path class="cls-15" d="M251.38,297.12h-3v31.07h3Z"/><path class="cls-15" d="M286.38,296.9h-3v31.37h3Z"/><path class="cls-15" d="M321.6,295.19H213v3H321.6Z"/><path class="cls-16" d="M380.33,210.69h25.78v3.89h-2.67v15.2l24.93-17.14,60.68,42.68-14-.36V314.3H383v-60l-15.45.24L383,243.89V214.58h-2.68Z"/><path class="cls-15" d="M403.44,263.83H393.22v33.81h10.22Z"/><path class="cls-17" d="M403.44,274.29H393.22v1.58h10.22Z"/><path class="cls-17" d="M403.44,285.48H393.22v1.58h10.22Z"/><path class="cls-15" d="M457.19,271.25H433.48v39.16h23.71Z"/><path class="cls-15" d="M447.19,283.49a11.8,11.8,0,1,0-13.54-9.75A11.79,11.79,0,0,0,447.19,283.49Z"/><path class="cls-17" d="M454.52,274.05h-8v6.81h8Z"/><path class="cls-17" d="M444.18,274.05h-8v6.81h8Z"/><path class="cls-17" d="M454.52,283.53h-8v6.81h8Z"/><path class="cls-17" d="M444.18,283.53h-8v6.81h8Z"/><path class="cls-14" d="M475.07,255.81,429,223.7l-46,31v-.36l-6.81.12L429.1,219l51.81,36.12-5.84-.12Z"/><path class="cls-14" d="M475.07,255.81,445.27,235l-29.55,21.16-7.3.37,36.85-26.27,35.64,24.81-5.84-.12Z"/><path class="cls-17" d="M484.07,310.41H374v7.79H484.07Z"/><path class="cls-13" d="M322.17,328h4.13V308.66h-6.83l6.83-6.47V280.28h-6.83l10.67-7.83H408.6l.15.08,11.52-11.46,35.43,35.21-11.74.15V328h4.12v4.06H322.17Z"/><path class="cls-15" d="M353.69,312.79H337.82v11.74h15.87Z"/><path class="cls-18" d="M346.79,312.79h-2v11.74h2Z"/><path class="cls-18" d="M341.66,312.79h-.78v11.74h.78Z"/><path class="cls-18" d="M350.49,312.79h-.79v11.74h.79Z"/><path class="cls-18" d="M353.69,318.27H337.82v.78h15.87Z"/><path class="cls-15" d="M353.69,285.12H337.82v11.73h15.87Z"/><path class="cls-18" d="M346.79,285.12h-2v11.73h2Z"/><path class="cls-18" d="M341.66,285.12h-.78v11.73h.78Z"/><path class="cls-18" d="M350.49,285.12h-.79v11.73h.79Z"/><path class="cls-18" d="M353.69,290.59H337.82v.79h15.87Z"/><path class="cls-14" d="M322.17,278.36h81l-2.14,2H326.3v-.07h-6.83Z"/><path class="cls-14" d="M321.6,306.67h78.68v2H319.47Z"/><path class="cls-14" d="M449.58,296.36,420.27,268l-29.38,28.39H388l32.23-31.16,32.15,31.08Z"/><path class="cls-15" d="M428.24,287.11H412.37v11.74h15.87Z"/><path class="cls-18" d="M421.27,287.11h-2v11.74h2Z"/><path class="cls-18" d="M416.22,287.11h-.79v11.74h.79Z"/><path class="cls-18" d="M425,287.11h-.78v11.74H425Z"/><path class="cls-18" d="M428.24,292.59H412.37v.78h15.87Z"/><path class="cls-15" d="M434.35,308.31H406.18v19.2h28.17Z"/><path class="cls-18" d="M410,309.3h-2.49v3.13H410Z"/><path class="cls-18" d="M414.58,309.3h-2.49v3.13h2.49Z"/><path class="cls-18" d="M419.2,309.3h-2.49v3.13h2.49Z"/><path class="cls-18" d="M423.83,309.3h-2.49v3.13h2.49Z"/><path class="cls-18" d="M428.45,309.3H426v3.13h2.49Z"/><path class="cls-18" d="M433.07,309.3h-2.49v3.13h2.49Z"/><path class="cls-15" d="M384.42,312.79H368.55v11.74h15.87Z"/><path class="cls-18" d="M377.52,312.79h-2v11.74h2Z"/><path class="cls-18" d="M372.4,312.79h-.79v11.74h.79Z"/><path class="cls-18" d="M381.22,312.79h-.79v11.74h.79Z"/><path class="cls-18" d="M384.42,318.27H368.55v.78h15.87Z"/><path class="cls-15" d="M384.42,285.12H368.55v11.73h15.87Z"/><path class="cls-18" d="M377.52,285.12h-2v11.73h2Z"/><path class="cls-18" d="M372.4,285.12h-.79v11.73h.79Z"/><path class="cls-18" d="M381.22,285.12h-.79v11.73h.79Z"/><path class="cls-18" d="M384.42,290.59H368.55v.79h15.87Z"/><rect class="cls-19" x="334" width="155" height="66" rx="16"/><path class="cls-6" d="M387.42,52a3.3,3.3,0,0,1,.81-1.59q.84-1.08,2-2.37t2.37-2.73a18.27,18.27,0,0,0,2-3,6,6,0,0,0,.84-2.76,4.67,4.67,0,0,0-.69-2.46A2,2,0,0,0,393,36a5.67,5.67,0,0,0-2.31.45,4,4,0,0,0-1.47,1l-.81,1q-.33.45-.45.45t-.24-.3a2.39,2.39,0,0,1,.36-1,9.61,9.61,0,0,1,1.08-1.44,6.11,6.11,0,0,1,1.95-1.35,6.27,6.27,0,0,1,2.73-.6,5.56,5.56,0,0,1,4.08,1.32,4.27,4.27,0,0,1,1.32,3.18,5.54,5.54,0,0,1-1.14,2.85,23.69,23.69,0,0,1-2.49,3.09q-1.35,1.38-2.49,2.67T392,48.94h5.43a1.08,1.08,0,0,0,.69-.27,3,3,0,0,0,.51-.51l.51-.78h.6L398.94,52Zm17.8-11.55a14.09,14.09,0,0,1,4.32.6,6.89,6.89,0,0,1,2.79,1.53,6.72,6.72,0,0,1,1.41,1.86,4.12,4.12,0,0,1,.45,1.8q0,6.06-5.82,6.06a10.13,10.13,0,0,1-3.33-.51A6.64,6.64,0,0,1,403,50.71q-.6-.54-.6-.87a2.69,2.69,0,0,1,.21-1.26,1,1,0,0,1,.87-.36q.36,0,.72.51a7.24,7.24,0,0,1,.72,1.08A3.32,3.32,0,0,0,406,50.89a3.7,3.7,0,0,0,1.92.48q2.7,0,2.7-4.53a6.87,6.87,0,0,0-.21-1.83,4.06,4.06,0,0,0-.84-1.5,3.82,3.82,0,0,0-2-1.11A13.67,13.67,0,0,0,404,42l1-7.56h8.37L412.63,37h-7ZM423.92,52v-.63q1.62,0,1.89-.6V35.68q-.27-.6-1.89-.6v-.63h7.59v.63q-1.62,0-1.89.6V51h6.24a3.21,3.21,0,0,0,1.35-1.89h.6L437.09,52Z"/><path class="cls-6" d="M366.34,11.64h8v1.55H374c0-.57-.11-.91-.32-1h-2.63v8.16c.1.22.44.32,1,.32V21h-3.49v-.34c.58,0,.92-.1,1-.32V12.18H367c-.22.1-.32.44-.32,1h-.34ZM375.81,17a4.52,4.52,0,0,0,.69,2.74,2.16,2.16,0,0,0,1.79.91,1.63,1.63,0,0,0,1.39-.77,3.52,3.52,0,0,0,.53-2q0-3.61-2.51-3.61a1.59,1.59,0,0,0-1.38.81A3.5,3.5,0,0,0,375.81,17Zm2.27,4.13a3.73,3.73,0,0,1-2.8-1,3.85,3.85,0,0,1-1-2.77,3.64,3.64,0,0,1,.91-2.54,3.59,3.59,0,0,1,2.79-1,3.7,3.7,0,0,1,2.83,1,3.79,3.79,0,0,1,.94,2.73,3.8,3.8,0,0,1-.91,2.6A3.47,3.47,0,0,1,378.08,21.16Zm7.17-9.52V14h1.37v.48h-1.37v5.09a1.52,1.52,0,0,0,.17.77.75.75,0,0,0,.66.25.88.88,0,0,0,.58-.27,1.47,1.47,0,0,0,.41-.78l.39.19a1.77,1.77,0,0,1-1.93,1.47,1.59,1.59,0,0,1-1.82-1.76v-5h-1.12V14a1.87,1.87,0,0,0,1.36-.62,2.32,2.32,0,0,0,.61-1.7Zm4.24,3.5a.53.53,0,0,1,.38.16.65.65,0,0,1,.18.5.48.48,0,0,1-.23.42.88.88,0,0,1-.49.14.66.66,0,0,1-.5-.21.87.87,0,0,1-.19-.59,1.49,1.49,0,0,1,.69-1.3,3.47,3.47,0,0,1,1.95-.46,2.87,2.87,0,0,1,2.18.74,2.74,2.74,0,0,1,.7,1.95v3.17a1.35,1.35,0,0,0,.16.75.52.52,0,0,0,.41.24.65.65,0,0,0,.37-.11.34.34,0,0,0,.18-.28h.29a.71.71,0,0,1-.34.66,2.2,2.2,0,0,1-1.14.21,1.16,1.16,0,0,1-1.13-.66,3.87,3.87,0,0,1-2.35.69q-2.4,0-2.4-1.95a1.11,1.11,0,0,1,.28-.75,2.34,2.34,0,0,1,.87-.56,10.12,10.12,0,0,1,1.05-.36l1.24-.3,1.07-.27a4.25,4.25,0,0,0-.35-2,1.31,1.31,0,0,0-1.25-.62C390.16,14.38,389.61,14.63,389.49,15.14Zm3.33,4.93a3,3,0,0,1-.1-.86V17.32l-.61.18-.69.19a4.76,4.76,0,0,0-.62.24,2.73,2.73,0,0,0-.58.32,1.77,1.77,0,0,0-.37.43,1.09,1.09,0,0,0-.15.56,1.56,1.56,0,0,0,.28,1.07,1.2,1.2,0,0,0,.9.31A3.67,3.67,0,0,0,392.82,20.07Zm2.95.93v-.34c.57,0,.91-.1,1-.32V12.06l-1-.08v-.37a4.15,4.15,0,0,0,1.18-.34,4.33,4.33,0,0,1,1.26-.35v9.42c.1.22.44.32,1,.32V21Zm13,0v-.34a1.43,1.43,0,0,0,.93-.19L408.81,18h-3.08l-.83,2.36c.11.19.44.28,1,.28V21h-2.62v-.34c.6,0,.93-.11,1-.33l3.1-8.69h.77l3.1,8.69c.08.22.42.33,1,.33V21Zm-1.52-7.23-1.32,3.73h2.68ZM412.63,21v-.34c.58,0,.91-.1,1-.32v-5.4l-1-.08v-.37a4.07,4.07,0,0,0,1.18-.34,4.29,4.29,0,0,1,1.27-.35v.72a2.69,2.69,0,0,1,1.77-.72c1.28,0,2.1.31,2.47.93a2.71,2.71,0,0,1,2-.93c1.79,0,2.69.61,2.69,1.82v4.72c.09.22.43.32,1,.32V21h-3.45v-.34c.57,0,.91-.1,1-.32V16.22a2.59,2.59,0,0,0-.31-1.46,1.2,1.2,0,0,0-1-.42,2.47,2.47,0,0,0-1.74.77,1.88,1.88,0,0,1,.06.51v4.72c.1.22.43.32,1,.32V21h-3.46v-.34c.58,0,.92-.1,1-.32V16.22a2.6,2.6,0,0,0-.3-1.46,1.21,1.21,0,0,0-1-.42,2.44,2.44,0,0,0-1.68.71v5.29c.09.22.43.32,1,.32V21Zm14.77-4a4.52,4.52,0,0,0,.69,2.74,2.17,2.17,0,0,0,1.79.91,1.61,1.61,0,0,0,1.39-.77,3.44,3.44,0,0,0,.53-2c0-2.41-.83-3.61-2.51-3.61a1.6,1.6,0,0,0-1.38.81A3.5,3.5,0,0,0,427.4,17Zm2.27,4.13a3.75,3.75,0,0,1-2.8-1,3.85,3.85,0,0,1-1-2.77,3.33,3.33,0,0,1,3.69-3.55,3.69,3.69,0,0,1,2.83,1,3.79,3.79,0,0,1,.95,2.73,3.85,3.85,0,0,1-.91,2.6A3.49,3.49,0,0,1,429.67,21.16ZM441.4,20l1,.08v.37a4.46,4.46,0,0,0-1.2.35,4,4,0,0,1-1.25.34v-.74a2.81,2.81,0,0,1-1.9.74,3.44,3.44,0,0,1-2.16-.54,2.15,2.15,0,0,1-.66-1.73V14.62c-.09-.22-.43-.32-1-.32V14h2.45v5q0,1.62,1.47,1.62a2.65,2.65,0,0,0,1.81-.71V14.62c-.1-.22-.43-.32-1-.32V14h2.45Zm1.85,1v-.34c.58,0,.92-.1,1-.32v-5.4l-1-.08v-.37a4.1,4.1,0,0,0,1.19-.34,4.25,4.25,0,0,1,1.26-.35v.74a2.89,2.89,0,0,1,1.91-.74,3.31,3.31,0,0,1,2.14.56,2.06,2.06,0,0,1,.67,1.71v4.27c.1.22.43.32,1,.32V21H448v-.34c.58,0,.92-.1,1-.32V16q0-1.62-1.47-1.62a2.67,2.67,0,0,0-1.81.71v5.29c.1.22.43.32,1,.32V21Zm11.25-9.36V14h1.37v.48H454.5v5.09a1.52,1.52,0,0,0,.17.77.75.75,0,0,0,.66.25.88.88,0,0,0,.58-.27,1.47,1.47,0,0,0,.41-.78l.39.19a1.77,1.77,0,0,1-1.93,1.47A1.59,1.59,0,0,1,453,19.4v-5h-1.12V14a1.87,1.87,0,0,0,1.36-.62,2.32,2.32,0,0,0,.61-1.7Z"/><rect class="cls-20" y="161" width="187" height="66" rx="16"/><path class="cls-6" d="M43.67,180v-.34c.58,0,.91-.1,1-.32v-8c-.1-.22-.43-.32-1-.32v-.34h3.62a5,5,0,0,1,3,.75,2.11,2.11,0,0,1,1,1.68,2.33,2.33,0,0,1-1,1.94,4.7,4.7,0,0,1-2.88.73H46.15v3.6c.1.22.43.32,1,.32V180Zm2.48-8.82v4h1.33a2.47,2.47,0,0,0,1.73-.48,2.21,2.21,0,0,0,.51-1.63c0-1.27-.81-1.91-2.43-1.91Zm7.42,5a4,4,0,0,0,.76,2.39,2.18,2.18,0,0,0,1.72,1,2.75,2.75,0,0,0,2.24-1.05l.38.19a2.85,2.85,0,0,1-1.22,1.12,4.63,4.63,0,0,1-2,.35,3.53,3.53,0,0,1-2.27-.78,2.88,2.88,0,0,1-.86-1.27,5.34,5.34,0,0,1-.32-2,3.39,3.39,0,0,1,.86-2.37,3.68,3.68,0,0,1,5,0,3.49,3.49,0,0,1,.83,2.38Zm0-.49h3.55a3.81,3.81,0,0,0-.49-1.76,1.48,1.48,0,0,0-1.36-.61,1.44,1.44,0,0,0-1.09.66A3.2,3.2,0,0,0,53.58,175.65ZM59.81,180v-.34c.58,0,.91-.1,1-.32v-5.4l-1-.08v-.37a4.07,4.07,0,0,0,1.18-.34,4.29,4.29,0,0,1,1.27-.35v.7a2.36,2.36,0,0,1,2.78-.43c.33.18.5.39.5.61,0,.38-.22.58-.64.58-.23,0-.43-.15-.61-.45s-.39-.47-.62-.47a2.25,2.25,0,0,0-1.41.69v5.31c.09.22.43.32,1,.32V180Zm10.33,0v-.34c.58,0,.91-.1,1-.32v-8c-.1-.22-.43-.32-1-.32v-.34h2.34l3.41,7.44,3.4-7.44h2.37V171c-.58,0-.91.1-1,.32v8c.1.22.43.32,1,.32V180H78.17v-.34c.58,0,.91-.1,1-.32v-7.18L75.6,180h-.24l-3.67-7.94v7.28c.1.22.44.32,1,.32V180Zm14.08-4a4.52,4.52,0,0,0,.69,2.74,2.17,2.17,0,0,0,1.79.91,1.64,1.64,0,0,0,1.4-.77,3.52,3.52,0,0,0,.52-2c0-2.41-.83-3.61-2.51-3.61a1.61,1.61,0,0,0-1.38.81A3.5,3.5,0,0,0,84.22,176Zm2.27,4.13a3.71,3.71,0,0,1-2.79-1,3.81,3.81,0,0,1-1-2.77,3.33,3.33,0,0,1,3.69-3.55,3.7,3.7,0,0,1,2.83,1,4.28,4.28,0,0,1,0,5.33A3.49,3.49,0,0,1,86.49,180.16Zm4.79-.16v-.34c.57,0,.91-.1,1-.32v-5.4l-1-.08v-.37a4.07,4.07,0,0,0,1.18-.34,4.29,4.29,0,0,1,1.27-.35v.74a2.81,2.81,0,0,1,1.9-.74,3.29,3.29,0,0,1,2.14.56,2.06,2.06,0,0,1,.68,1.71v4.27c.09.22.43.32,1,.32V180H96v-.34c.57,0,.91-.1,1-.32V175c0-1.08-.49-1.62-1.48-1.62a2.65,2.65,0,0,0-1.8.71v5.29c.09.22.43.32,1,.32V180Zm11.24-9.36V173h1.38v.48h-1.38v5.09a1.42,1.42,0,0,0,.18.77.72.72,0,0,0,.65.25.84.84,0,0,0,.58-.27,1.55,1.55,0,0,0,.42-.78l.38.19a1.76,1.76,0,0,1-1.92,1.47c-1.22,0-1.83-.59-1.83-1.76v-5H99.86V173a1.89,1.89,0,0,0,1.37-.62,2.37,2.37,0,0,0,.6-1.7ZM105.3,180v-.34c.58,0,.92-.1,1-.32v-8.28l-1-.08v-.37a4.1,4.1,0,0,0,1.19-.34,4.33,4.33,0,0,1,1.26-.35v3.62a2.84,2.84,0,0,1,1.91-.74,3.61,3.61,0,0,1,2.16.5,2,2,0,0,1,.65,1.71v4.33c.1.22.43.32,1,.32V180H110v-.34c.58,0,.92-.1,1-.32V174.9q0-1.56-1.47-1.56a2.69,2.69,0,0,0-1.81.71v5.29c.1.22.43.32,1,.32V180Zm13,0v-.34c.58,0,.91-.1,1-.32v-8c-.1-.22-.43-.32-1-.32v-.34h6.45v1.55h-.34c0-.57-.1-.91-.32-1h-3.31v3.68H123c.21-.09.32-.43.32-1h.34v2.56h-.34c0-.58-.11-.92-.32-1h-2.24v4.05h3.65a1.72,1.72,0,0,0,.72-1h.32l-.38,1.55Zm8.11,0v-.34c.58,0,.91-.1,1-.32v-8c-.1-.22-.43-.32-1-.32v-.34h2.34l3.41,7.44,3.4-7.44h2.37V171c-.58,0-.91.1-1,.32v8c.1.22.43.32,1,.32V180h-3.49v-.34c.58,0,.91-.1,1-.32v-7.18L131.85,180h-.24l-3.67-7.94v7.28c.1.22.44.32,1,.32V180Zm12.86,0v-.34c.58,0,.91-.1,1-.32v-8c-.1-.22-.43-.32-1-.32v-.34h3.49V171c-.58,0-.91.1-1,.32v8c.1.22.43.32,1,.32V180Z"/><path class="cls-6" d="M78.58,202.77a4.66,4.66,0,0,0,2-4.11,2.17,2.17,0,0,0-.9-1.86,3.23,3.23,0,0,0-1.95-.66q-3,0-3,2.43a2.16,2.16,0,0,0,.27,1,5.24,5.24,0,0,0,1,1.14q.69.6,1.14,1Zm1.17.87q3.51,2.67,3.51,5a4.12,4.12,0,0,1-1.74,3.18,6.26,6.26,0,0,1-4.17,1.44A7.3,7.3,0,0,1,72.91,212a3.81,3.81,0,0,1-1.71-3.18q0-2.85,3.69-4.86-3.36-2.58-3.36-4.92a3.21,3.21,0,0,1,1.53-2.7,6.88,6.88,0,0,1,4-1.08q5.85,0,5.85,3.6Q83,201.72,79.75,203.64ZM76,204.87a4.45,4.45,0,0,0-2.37,4.23,2.77,2.77,0,0,0,1,2.22,3.31,3.31,0,0,0,2.13.84,4.36,4.36,0,0,0,2.4-.6,2.67,2.67,0,0,0,.93-2.37q0-1.38-3.6-4Zm13-3.42a14.09,14.09,0,0,1,4.32.6,6.89,6.89,0,0,1,2.79,1.53,6.72,6.72,0,0,1,1.41,1.86,4.12,4.12,0,0,1,.45,1.8q0,6.06-5.82,6.06a10.13,10.13,0,0,1-3.33-.51,6.64,6.64,0,0,1-2.07-1.08q-.6-.54-.6-.87a2.69,2.69,0,0,1,.21-1.26,1,1,0,0,1,.87-.36q.36,0,.72.51a7.24,7.24,0,0,1,.72,1.08,3.32,3.32,0,0,0,1.14,1.08,3.7,3.7,0,0,0,1.92.48q2.7,0,2.7-4.53a6.87,6.87,0,0,0-.21-1.83,4.06,4.06,0,0,0-.84-1.5,3.82,3.82,0,0,0-2-1.11,13.67,13.67,0,0,0-3.57-.39l1-7.56h8.37L96.41,198h-7ZM99.83,213v-.63q1.62,0,1.89-.6V196.2q-1.62-.12-1.89-.12v-.69a14.38,14.38,0,0,0,2.76-.63,13.15,13.15,0,0,1,2.88-.66v17.67q.27.6,1.89.6V213Zm9.72,0v-.63a5.69,5.69,0,0,0,1.14-.09l-5-6.9,5.31-4.77a4.31,4.31,0,0,0-1.47-.18v-.63h4.71v.63a2.52,2.52,0,0,0-1.62.39L109,204.06l5.58,7.74q.42.57,1.89.57V213Z"/><path class="cls-6" d="M196.81,80.43h-5.5A17.51,17.51,0,1,1,194,63.54a16.89,16.89,0,0,1,.2,11.3Z"/><path class="cls-3" d="M196.81,80.43a1,1,0,0,1-.2-.4c-.1-.19-.3-.6-.5-1.1-.4-.9-1.1-2.29-1.9-4.09h0v-.11a17,17,0,0,0,.5-8.59,23.77,23.77,0,0,0-.7-2.6,20.76,20.76,0,0,0-1.2-2.61,17.55,17.55,0,0,0-10.1-8.1,18.35,18.35,0,0,0-7.4-.6A17.24,17.24,0,0,0,162.41,61a16.69,16.69,0,0,0-2.2,8.1,18.15,18.15,0,0,0,1.7,7.79,17,17,0,0,0,4.6,5.91,18.08,18.08,0,0,0,6.2,3.3,20.59,20.59,0,0,0,6.3.7,1.56,1.56,0,0,0,.7-.11,1.88,1.88,0,0,0,.7-.09c.5-.11.9-.21,1.4-.3a19.87,19.87,0,0,0,2.6-.91,17.39,17.39,0,0,0,6.8-5.2c1.8,0,3.1,0,4.1.11h1.1a1.73,1.73,0,0,0,.4.09h-5.4a17.42,17.42,0,0,1-6.8,5.3,18.5,18.5,0,0,1-2.6.91c-.5.09-.9.2-1.4.29a1.7,1.7,0,0,1-.7.1c-.2,0-.5.11-.8.11a17.63,17.63,0,0,1-6.4-.61,17.51,17.51,0,0,1-11-9.3,17.62,17.62,0,0,1,.5-16.09,4.11,4.11,0,0,0,.5-.91l.6-.9.7-.79a2.62,2.62,0,0,1,.7-.81c.2-.3.5-.5.7-.8a2.84,2.84,0,0,1,.8-.7c.3-.19.5-.5.8-.69a5.56,5.56,0,0,0,.8-.61,17.55,17.55,0,0,1,7.4-2.79,18.67,18.67,0,0,1,7.5.59,18,18,0,0,1,6.1,3.31,15.4,15.4,0,0,1,4,4.89,19.08,19.08,0,0,1,1.2,2.61,14.25,14.25,0,0,1,.7,2.6,17.29,17.29,0,0,1-.5,8.7h0c.8,1.8,1.4,3.19,1.9,4.19.2.5.4.81.5,1.11A1,1,0,0,0,196.81,80.43Z"/><path class="cls-9" d="M168.61,70.34l2.5-2.7,5.1,4.09,7.7-8.8,2.6,2.41-10.4,11.39Z"/></g></g></svg>