<svg width="118" height="45" viewBox="0 0 118 45" fill="none" xmlns="http://www.w3.org/2000/svg">
<path id="Vector 32" d="M43 15L30.8207 6.48757C27.1397 3.91486 22.1255 4.44942 19.0697 7.74032L6.93966 20.8034C3.63031 24.3674 3.75093 29.9157 7.21203 33.3324L11.5222 37.5873C15.0949 41.1142 20.8624 41.0362 24.3385 37.4141L50.7459 9.89698C53.9151 6.59458 59.0582 6.19678 62.6975 8.97258L76.5 19.5M37.1636 29.3L46.3744 37.0938C49.6708 39.883 54.4837 39.938 57.843 37.2247L93.7418 8.22956C96.7875 5.76956 101.074 5.56074 104.345 7.71306L108.713 10.5879C113.495 13.7352 114.162 20.4888 110.088 24.5108L99.2529 35.2067C96.4784 37.9457 92.2559 38.5868 88.7934 36.7948L70.2546 27.2" stroke="#C42128" stroke-width="9"/>
</svg>
